<?xml version="1.0" encoding="UTF-8"?>
<svg xmlns="http://www.w3.org/2000/svg" xmlns:xlink="http://www.w3.org/1999/xlink" width="1920" height="1080" viewBox="0 0 1920 1080">
<defs>
<g>
<g id="glyph-0-0">
<path d="M 2.683594 -0.914062 L 2.617188 0 L 0.210938 0 L 0.210938 -0.152344 C 0.246094 -0.15625 0.296875 -0.160156 0.363281 -0.167969 C 0.429688 -0.175781 0.476562 -0.1875 0.5 -0.199219 C 0.542969 -0.214844 0.574219 -0.242188 0.59375 -0.28125 C 0.613281 -0.316406 0.625 -0.363281 0.625 -0.417969 L 0.625 -2.625 C 0.625 -2.671875 0.617188 -2.714844 0.601562 -2.753906 C 0.582031 -2.792969 0.550781 -2.820312 0.5 -2.84375 C 0.46875 -2.863281 0.421875 -2.878906 0.359375 -2.894531 C 0.300781 -2.914062 0.25 -2.921875 0.210938 -2.925781 L 0.210938 -3.078125 L 1.511719 -3.078125 L 1.511719 -2.925781 C 1.472656 -2.921875 1.417969 -2.917969 1.355469 -2.902344 C 1.289062 -2.890625 1.242188 -2.878906 1.214844 -2.867188 C 1.164062 -2.851562 1.132812 -2.820312 1.113281 -2.78125 C 1.097656 -2.738281 1.085938 -2.691406 1.085938 -2.644531 L 1.085938 -0.578125 C 1.085938 -0.480469 1.09375 -0.40625 1.101562 -0.355469 C 1.109375 -0.300781 1.132812 -0.261719 1.167969 -0.230469 C 1.199219 -0.207031 1.25 -0.1875 1.316406 -0.179688 C 1.382812 -0.171875 1.472656 -0.167969 1.59375 -0.167969 C 1.644531 -0.167969 1.703125 -0.171875 1.761719 -0.171875 C 1.816406 -0.175781 1.871094 -0.183594 1.925781 -0.191406 C 1.976562 -0.199219 2.023438 -0.210938 2.066406 -0.226562 C 2.105469 -0.242188 2.140625 -0.261719 2.160156 -0.285156 C 2.21875 -0.351562 2.289062 -0.453125 2.367188 -0.585938 C 2.445312 -0.722656 2.5 -0.832031 2.53125 -0.914062 Z "/>
</g>
<g id="glyph-0-1">
<path d="M 1.058594 0.792969 C 0.921875 0.792969 0.796875 0.773438 0.683594 0.742188 C 0.570312 0.707031 0.472656 0.660156 0.394531 0.601562 C 0.3125 0.546875 0.25 0.480469 0.203125 0.402344 C 0.160156 0.328125 0.140625 0.25 0.140625 0.171875 C 0.140625 0.101562 0.15625 0.0351562 0.191406 -0.0195312 C 0.226562 -0.078125 0.28125 -0.105469 0.359375 -0.105469 C 0.445312 -0.105469 0.511719 -0.0859375 0.554688 -0.0429688 C 0.601562 0 0.625 0.0507812 0.625 0.105469 C 0.625 0.152344 0.617188 0.210938 0.601562 0.28125 C 0.585938 0.351562 0.574219 0.402344 0.566406 0.433594 C 0.578125 0.445312 0.59375 0.460938 0.621094 0.484375 C 0.648438 0.503906 0.679688 0.523438 0.71875 0.542969 C 0.765625 0.5625 0.816406 0.582031 0.867188 0.59375 C 0.917969 0.609375 0.988281 0.613281 1.082031 0.613281 C 1.167969 0.613281 1.253906 0.601562 1.332031 0.570312 C 1.414062 0.542969 1.484375 0.496094 1.542969 0.433594 C 1.609375 0.367188 1.65625 0.289062 1.695312 0.199219 C 1.730469 0.109375 1.746094 -0.0078125 1.746094 -0.152344 C 1.746094 -0.230469 1.738281 -0.308594 1.722656 -0.382812 C 1.707031 -0.460938 1.675781 -0.527344 1.628906 -0.582031 C 1.585938 -0.640625 1.523438 -0.683594 1.445312 -0.714844 C 1.367188 -0.746094 1.269531 -0.761719 1.152344 -0.761719 L 0.867188 -0.761719 L 0.867188 -1.011719 L 1.054688 -1.011719 C 1.253906 -1.011719 1.398438 -1.066406 1.488281 -1.175781 C 1.578125 -1.285156 1.621094 -1.453125 1.621094 -1.671875 C 1.621094 -1.855469 1.578125 -1.988281 1.492188 -2.082031 C 1.40625 -2.175781 1.285156 -2.21875 1.128906 -2.21875 C 1.054688 -2.21875 0.992188 -2.210938 0.945312 -2.191406 C 0.894531 -2.175781 0.855469 -2.15625 0.824219 -2.140625 C 0.789062 -2.121094 0.757812 -2.097656 0.734375 -2.074219 C 0.710938 -2.046875 0.695312 -2.03125 0.683594 -2.019531 C 0.695312 -1.972656 0.707031 -1.914062 0.71875 -1.847656 C 0.734375 -1.78125 0.742188 -1.714844 0.742188 -1.65625 C 0.742188 -1.601562 0.71875 -1.554688 0.671875 -1.511719 C 0.628906 -1.46875 0.5625 -1.449219 0.472656 -1.449219 C 0.394531 -1.449219 0.339844 -1.476562 0.304688 -1.53125 C 0.269531 -1.585938 0.25 -1.648438 0.25 -1.722656 C 0.25 -1.796875 0.273438 -1.871094 0.316406 -1.949219 C 0.355469 -2.027344 0.417969 -2.101562 0.5 -2.171875 C 0.582031 -2.238281 0.683594 -2.292969 0.804688 -2.335938 C 0.921875 -2.375 1.058594 -2.398438 1.214844 -2.398438 C 1.390625 -2.398438 1.539062 -2.371094 1.65625 -2.320312 C 1.769531 -2.265625 1.863281 -2.203125 1.929688 -2.125 C 1.996094 -2.054688 2.039062 -1.976562 2.0625 -1.894531 C 2.089844 -1.8125 2.101562 -1.742188 2.101562 -1.6875 C 2.101562 -1.613281 2.089844 -1.539062 2.070312 -1.46875 C 2.050781 -1.394531 2.015625 -1.328125 1.96875 -1.265625 C 1.917969 -1.195312 1.851562 -1.136719 1.769531 -1.078125 C 1.6875 -1.023438 1.582031 -0.980469 1.457031 -0.945312 L 1.457031 -0.910156 C 1.535156 -0.902344 1.625 -0.882812 1.714844 -0.855469 C 1.808594 -0.824219 1.890625 -0.785156 1.964844 -0.726562 C 2.039062 -0.667969 2.101562 -0.589844 2.152344 -0.496094 C 2.203125 -0.40625 2.226562 -0.285156 2.226562 -0.144531 C 2.226562 0.132812 2.113281 0.359375 1.890625 0.53125 C 1.667969 0.707031 1.390625 0.792969 1.058594 0.792969 Z "/>
</g>
</g>
</defs>
<g fill="rgb(100%, 100%, 100%)" fill-opacity="1">
<use xlink:href="#glyph-0-0" x="30" y="24.074219"/>
<use xlink:href="#glyph-0-1" x="33" y="24.074219"/>
</g>
</svg>
