<?xml version="1.0" encoding="UTF-8"?>
<svg xmlns="http://www.w3.org/2000/svg" xmlns:xlink="http://www.w3.org/1999/xlink" width="3840" height="2160" viewBox="0 0 3840 2160">
<defs>
<g>
<g id="glyph-0-0">
<path d="M 3.957031 0 L 3.234375 0 L 1.09375 -4.179688 L 1.09375 0 L 0.492188 0 L 0.492188 -4.847656 L 1.40625 -4.847656 L 3.355469 -1.007812 L 3.355469 -4.847656 L 3.957031 -4.847656 Z "/>
</g>
<g id="glyph-0-1">
<path d="M 3.433594 -1.816406 C 3.433594 -1.203125 3.285156 -0.730469 2.992188 -0.398438 C 2.695312 -0.0664062 2.304688 0.101562 1.8125 0.101562 C 1.308594 0.101562 0.910156 -0.0703125 0.621094 -0.414062 C 0.332031 -0.757812 0.183594 -1.226562 0.183594 -1.816406 C 0.183594 -2.425781 0.335938 -2.894531 0.632812 -3.230469 C 0.929688 -3.570312 1.324219 -3.738281 1.8125 -3.738281 C 2.304688 -3.738281 2.695312 -3.570312 2.992188 -3.234375 C 3.285156 -2.898438 3.433594 -2.425781 3.433594 -1.816406 M 2.800781 -1.816406 C 2.800781 -2.289062 2.71875 -2.636719 2.546875 -2.867188 C 2.375 -3.09375 2.128906 -3.210938 1.8125 -3.210938 C 1.492188 -3.210938 1.25 -3.09375 1.074219 -2.867188 C 0.902344 -2.636719 0.816406 -2.289062 0.816406 -1.816406 C 0.816406 -1.359375 0.902344 -1.015625 1.074219 -0.78125 C 1.25 -0.542969 1.492188 -0.425781 1.8125 -0.425781 C 2.128906 -0.425781 2.371094 -0.542969 2.542969 -0.773438 C 2.714844 -1.003906 2.800781 -1.351562 2.800781 -1.816406 Z "/>
</g>
<g id="glyph-0-2">
<path d="M 2.371094 -2.976562 L 2.335938 -2.976562 C 2.292969 -2.992188 2.242188 -3 2.191406 -3.003906 C 2.140625 -3.007812 2.078125 -3.007812 2.007812 -3.007812 C 1.84375 -3.007812 1.679688 -2.972656 1.515625 -2.898438 C 1.355469 -2.828125 1.199219 -2.722656 1.054688 -2.582031 L 1.054688 0 L 0.441406 0 L 0.441406 -3.636719 L 1.054688 -3.636719 L 1.054688 -3.09375 C 1.277344 -3.292969 1.472656 -3.433594 1.640625 -3.515625 C 1.804688 -3.59375 1.964844 -3.636719 2.121094 -3.636719 C 2.183594 -3.636719 2.234375 -3.632812 2.265625 -3.632812 C 2.296875 -3.628906 2.332031 -3.621094 2.371094 -3.617188 Z "/>
</g>
<g id="glyph-0-3">
<path d="M 4.570312 0 L 4.570312 -2.101562 C 4.570312 -2.269531 4.5625 -2.425781 4.550781 -2.566406 C 4.539062 -2.707031 4.511719 -2.820312 4.46875 -2.898438 C 4.425781 -2.988281 4.363281 -3.050781 4.285156 -3.09375 C 4.203125 -3.132812 4.09375 -3.152344 3.957031 -3.152344 C 3.832031 -3.152344 3.699219 -3.117188 3.554688 -3.039062 C 3.410156 -2.960938 3.257812 -2.851562 3.105469 -2.703125 C 3.109375 -2.667969 3.109375 -2.625 3.113281 -2.574219 C 3.117188 -2.523438 3.117188 -2.460938 3.117188 -2.390625 L 3.117188 0 L 2.507812 0 L 2.507812 -2.101562 C 2.507812 -2.269531 2.5 -2.425781 2.488281 -2.566406 C 2.472656 -2.707031 2.445312 -2.820312 2.40625 -2.898438 C 2.363281 -2.988281 2.300781 -3.050781 2.21875 -3.09375 C 2.140625 -3.132812 2.03125 -3.152344 1.894531 -3.152344 C 1.761719 -3.152344 1.625 -3.113281 1.476562 -3.03125 C 1.332031 -2.949219 1.191406 -2.84375 1.054688 -2.714844 L 1.054688 0 L 0.441406 0 L 0.441406 -3.636719 L 1.054688 -3.636719 L 1.054688 -3.230469 C 1.214844 -3.394531 1.375 -3.515625 1.53125 -3.605469 C 1.6875 -3.691406 1.863281 -3.738281 2.050781 -3.738281 C 2.265625 -3.738281 2.457031 -3.6875 2.621094 -3.589844 C 2.789062 -3.492188 2.914062 -3.332031 3 -3.109375 C 3.1875 -3.316406 3.367188 -3.472656 3.542969 -3.578125 C 3.71875 -3.683594 3.910156 -3.738281 4.113281 -3.738281 C 4.269531 -3.738281 4.414062 -3.710938 4.539062 -3.664062 C 4.667969 -3.613281 4.78125 -3.535156 4.875 -3.425781 C 4.972656 -3.316406 5.050781 -3.179688 5.101562 -3.015625 C 5.15625 -2.847656 5.183594 -2.640625 5.183594 -2.390625 L 5.183594 0 Z "/>
</g>
<g id="glyph-0-4">
<path d="M 2.472656 -0.894531 L 2.472656 -1.902344 C 2.328125 -1.890625 2.144531 -1.875 1.921875 -1.851562 C 1.699219 -1.828125 1.519531 -1.796875 1.382812 -1.753906 C 1.21875 -1.703125 1.085938 -1.628906 0.980469 -1.523438 C 0.875 -1.421875 0.820312 -1.277344 0.820312 -1.09375 C 0.820312 -0.886719 0.878906 -0.726562 0.996094 -0.621094 C 1.113281 -0.515625 1.285156 -0.460938 1.511719 -0.460938 C 1.703125 -0.460938 1.878906 -0.503906 2.035156 -0.585938 C 2.191406 -0.671875 2.335938 -0.773438 2.472656 -0.894531 M 2.472656 -0.386719 C 2.425781 -0.351562 2.355469 -0.300781 2.273438 -0.234375 C 2.191406 -0.167969 2.109375 -0.113281 2.03125 -0.0742188 C 1.921875 -0.0195312 1.816406 0.0234375 1.71875 0.0546875 C 1.617188 0.0859375 1.472656 0.101562 1.292969 0.101562 C 1.140625 0.101562 1 0.0742188 0.867188 0.015625 C 0.730469 -0.0390625 0.613281 -0.121094 0.511719 -0.222656 C 0.414062 -0.320312 0.335938 -0.445312 0.277344 -0.589844 C 0.21875 -0.738281 0.1875 -0.890625 0.1875 -1.054688 C 0.1875 -1.304688 0.242188 -1.519531 0.347656 -1.699219 C 0.453125 -1.875 0.621094 -2.015625 0.851562 -2.117188 C 1.058594 -2.210938 1.296875 -2.277344 1.574219 -2.3125 C 1.851562 -2.347656 2.152344 -2.375 2.472656 -2.390625 L 2.472656 -2.507812 C 2.472656 -2.652344 2.453125 -2.769531 2.410156 -2.855469 C 2.367188 -2.945312 2.304688 -3.011719 2.226562 -3.058594 C 2.148438 -3.109375 2.054688 -3.144531 1.941406 -3.160156 C 1.828125 -3.175781 1.710938 -3.183594 1.589844 -3.183594 C 1.449219 -3.183594 1.285156 -3.164062 1.09375 -3.121094 C 0.902344 -3.078125 0.710938 -3.015625 0.519531 -2.9375 L 0.484375 -2.9375 L 0.484375 -3.558594 C 0.597656 -3.589844 0.757812 -3.625 0.96875 -3.664062 C 1.179688 -3.703125 1.390625 -3.722656 1.59375 -3.722656 C 1.84375 -3.722656 2.054688 -3.703125 2.226562 -3.664062 C 2.398438 -3.625 2.550781 -3.554688 2.6875 -3.453125 C 2.820312 -3.355469 2.917969 -3.226562 2.984375 -3.066406 C 3.050781 -2.90625 3.082031 -2.714844 3.082031 -2.488281 L 3.082031 0 L 2.472656 0 Z "/>
</g>
<g id="glyph-0-5">
<path d="M 1.066406 0 L 0.457031 0 L 0.457031 -5.066406 L 1.066406 -5.066406 Z "/>
</g>
</g>
</defs>
<g fill="rgb(15.294118%, 68.235294%, 37.647059%)" fill-opacity="1">
<use xlink:href="#glyph-0-0" x="30" y="26.668945"/>
<use xlink:href="#glyph-0-1" x="34" y="26.668945"/>
<use xlink:href="#glyph-0-2" x="38" y="26.668945"/>
<use xlink:href="#glyph-0-3" x="40" y="26.668945"/>
<use xlink:href="#glyph-0-4" x="46" y="26.668945"/>
<use xlink:href="#glyph-0-5" x="49" y="26.668945"/>
</g>
</svg>
