<?xml version="1.0" encoding="UTF-8"?>
<svg xmlns="http://www.w3.org/2000/svg" xmlns:xlink="http://www.w3.org/1999/xlink" width="3840" height="2160" viewBox="0 0 3840 2160">
<defs>
<g>
<g id="glyph-0-0">
<path d="M 4.566406 0 L 3.207031 0 L 1.96875 -1.628906 L 1.570312 -1.628906 L 1.570312 0 L 0.460938 0 L 0.460938 -4.441406 L 2.246094 -4.441406 C 2.492188 -4.441406 2.707031 -4.425781 2.890625 -4.398438 C 3.074219 -4.367188 3.242188 -4.300781 3.398438 -4.203125 C 3.558594 -4.101562 3.683594 -3.972656 3.777344 -3.816406 C 3.871094 -3.660156 3.917969 -3.464844 3.917969 -3.222656 C 3.917969 -2.882812 3.839844 -2.605469 3.6875 -2.394531 C 3.535156 -2.183594 3.328125 -2.015625 3.074219 -1.890625 L 4.566406 0 M 2.773438 -3.082031 C 2.773438 -3.195312 2.75 -3.289062 2.707031 -3.371094 C 2.664062 -3.449219 2.59375 -3.511719 2.496094 -3.554688 C 2.425781 -3.585938 2.347656 -3.605469 2.261719 -3.613281 C 2.175781 -3.621094 2.070312 -3.625 1.941406 -3.625 L 1.570312 -3.625 L 1.570312 -2.429688 L 1.890625 -2.429688 C 2.042969 -2.429688 2.175781 -2.4375 2.285156 -2.457031 C 2.390625 -2.476562 2.484375 -2.515625 2.558594 -2.578125 C 2.632812 -2.632812 2.683594 -2.699219 2.71875 -2.777344 C 2.753906 -2.855469 2.773438 -2.957031 2.773438 -3.082031 Z "/>
</g>
<g id="glyph-0-1">
<path d="M 2.246094 -0.875 L 2.246094 -1.574219 C 2.070312 -1.554688 1.925781 -1.539062 1.816406 -1.527344 C 1.707031 -1.511719 1.601562 -1.488281 1.496094 -1.449219 C 1.402344 -1.417969 1.332031 -1.371094 1.28125 -1.304688 C 1.230469 -1.242188 1.207031 -1.15625 1.207031 -1.046875 C 1.207031 -0.890625 1.246094 -0.78125 1.332031 -0.722656 C 1.417969 -0.664062 1.542969 -0.636719 1.707031 -0.636719 C 1.796875 -0.636719 1.890625 -0.65625 1.988281 -0.699219 C 2.082031 -0.738281 2.167969 -0.796875 2.246094 -0.875 M 2.246094 -0.355469 C 2.175781 -0.296875 2.109375 -0.242188 2.054688 -0.195312 C 1.996094 -0.144531 1.921875 -0.0976562 1.824219 -0.0507812 C 1.734375 -0.00390625 1.640625 0.03125 1.554688 0.0546875 C 1.464844 0.078125 1.339844 0.0898438 1.179688 0.0898438 C 0.886719 0.0898438 0.640625 -0.0117188 0.441406 -0.207031 C 0.246094 -0.40625 0.148438 -0.660156 0.148438 -0.960938 C 0.148438 -1.210938 0.199219 -1.410156 0.296875 -1.5625 C 0.398438 -1.714844 0.542969 -1.839844 0.726562 -1.925781 C 0.917969 -2.019531 1.144531 -2.082031 1.40625 -2.117188 C 1.667969 -2.152344 1.949219 -2.183594 2.253906 -2.203125 L 2.253906 -2.21875 C 2.253906 -2.40625 2.183594 -2.53125 2.046875 -2.601562 C 1.910156 -2.675781 1.707031 -2.710938 1.433594 -2.710938 C 1.3125 -2.710938 1.167969 -2.6875 1.003906 -2.640625 C 0.835938 -2.597656 0.675781 -2.539062 0.519531 -2.46875 L 0.429688 -2.46875 L 0.429688 -3.277344 C 0.53125 -3.308594 0.699219 -3.34375 0.929688 -3.386719 C 1.160156 -3.425781 1.394531 -3.445312 1.628906 -3.445312 C 2.207031 -3.445312 2.625 -3.351562 2.890625 -3.160156 C 3.152344 -2.964844 3.285156 -2.671875 3.285156 -2.28125 L 3.285156 0 L 2.246094 0 Z "/>
</g>
<g id="glyph-0-2">
<path d="M 3.539062 0 L 2.488281 0 L 2.488281 -1.660156 C 2.488281 -1.796875 2.484375 -1.933594 2.472656 -2.066406 C 2.460938 -2.199219 2.441406 -2.300781 2.410156 -2.363281 C 2.375 -2.4375 2.324219 -2.492188 2.253906 -2.527344 C 2.1875 -2.558594 2.097656 -2.574219 1.984375 -2.574219 C 1.898438 -2.574219 1.8125 -2.558594 1.722656 -2.527344 C 1.636719 -2.496094 1.542969 -2.445312 1.445312 -2.375 L 1.445312 0 L 0.398438 0 L 0.398438 -3.351562 L 1.445312 -3.351562 L 1.445312 -2.980469 C 1.613281 -3.125 1.78125 -3.238281 1.945312 -3.320312 C 2.105469 -3.402344 2.285156 -3.441406 2.484375 -3.441406 C 2.824219 -3.441406 3.085938 -3.335938 3.265625 -3.121094 C 3.449219 -2.902344 3.539062 -2.589844 3.539062 -2.179688 Z "/>
</g>
<g id="glyph-0-3">
<path d="M 3.445312 0 L 2.402344 0 L 2.402344 -0.347656 C 2.335938 -0.292969 2.257812 -0.234375 2.171875 -0.171875 C 2.085938 -0.105469 2.007812 -0.0585938 1.941406 -0.0273438 C 1.859375 0.0117188 1.777344 0.0429688 1.695312 0.0625 C 1.613281 0.0820312 1.515625 0.09375 1.402344 0.09375 C 1.019531 0.09375 0.71875 -0.0664062 0.496094 -0.382812 C 0.273438 -0.699219 0.160156 -1.121094 0.160156 -1.648438 C 0.160156 -1.941406 0.199219 -2.195312 0.273438 -2.410156 C 0.351562 -2.625 0.453125 -2.8125 0.585938 -2.972656 C 0.710938 -3.117188 0.855469 -3.230469 1.03125 -3.316406 C 1.203125 -3.402344 1.386719 -3.441406 1.578125 -3.441406 C 1.753906 -3.441406 1.898438 -3.425781 2.007812 -3.386719 C 2.121094 -3.351562 2.253906 -3.292969 2.402344 -3.214844 L 2.402344 -4.644531 L 3.445312 -4.644531 L 3.445312 0 M 2.402344 -0.925781 L 2.402344 -2.570312 C 2.351562 -2.59375 2.28125 -2.617188 2.199219 -2.632812 C 2.117188 -2.648438 2.042969 -2.660156 1.984375 -2.660156 C 1.734375 -2.660156 1.546875 -2.570312 1.417969 -2.394531 C 1.292969 -2.222656 1.230469 -1.976562 1.230469 -1.660156 C 1.230469 -1.332031 1.28125 -1.09375 1.378906 -0.945312 C 1.480469 -0.796875 1.644531 -0.726562 1.867188 -0.726562 C 1.960938 -0.726562 2.050781 -0.742188 2.144531 -0.777344 C 2.238281 -0.816406 2.324219 -0.863281 2.402344 -0.925781 Z "/>
</g>
<g id="glyph-0-4">
<path d="M 3.617188 -1.675781 C 3.617188 -1.121094 3.464844 -0.6875 3.164062 -0.371094 C 2.863281 -0.0546875 2.4375 0.105469 1.886719 0.105469 C 1.339844 0.105469 0.914062 -0.0546875 0.609375 -0.371094 C 0.308594 -0.6875 0.15625 -1.121094 0.15625 -1.675781 C 0.15625 -2.230469 0.308594 -2.667969 0.609375 -2.980469 C 0.914062 -3.296875 1.339844 -3.457031 1.886719 -3.457031 C 2.433594 -3.457031 2.859375 -3.296875 3.164062 -2.980469 C 3.464844 -2.660156 3.617188 -2.226562 3.617188 -1.675781 M 2.546875 -1.667969 C 2.546875 -1.867188 2.527344 -2.03125 2.496094 -2.164062 C 2.464844 -2.296875 2.417969 -2.402344 2.359375 -2.484375 C 2.296875 -2.566406 2.230469 -2.625 2.152344 -2.65625 C 2.074219 -2.691406 1.984375 -2.707031 1.886719 -2.707031 C 1.792969 -2.707031 1.707031 -2.691406 1.632812 -2.664062 C 1.554688 -2.632812 1.488281 -2.578125 1.421875 -2.496094 C 1.363281 -2.417969 1.316406 -2.3125 1.28125 -2.179688 C 1.246094 -2.042969 1.226562 -1.871094 1.226562 -1.667969 C 1.226562 -1.464844 1.242188 -1.296875 1.277344 -1.171875 C 1.3125 -1.042969 1.355469 -0.945312 1.410156 -0.867188 C 1.464844 -0.789062 1.535156 -0.734375 1.617188 -0.699219 C 1.699219 -0.664062 1.792969 -0.644531 1.894531 -0.644531 C 1.976562 -0.644531 2.0625 -0.664062 2.148438 -0.699219 C 2.234375 -0.734375 2.304688 -0.789062 2.355469 -0.859375 C 2.417969 -0.945312 2.464844 -1.046875 2.496094 -1.167969 C 2.527344 -1.289062 2.546875 -1.453125 2.546875 -1.667969 Z "/>
</g>
<g id="glyph-0-5">
<path d="M 4.402344 0 L 4.402344 -1.675781 C 4.402344 -1.839844 4.402344 -1.976562 4.394531 -2.089844 C 4.390625 -2.203125 4.371094 -2.296875 4.339844 -2.367188 C 4.3125 -2.441406 4.265625 -2.492188 4.203125 -2.527344 C 4.140625 -2.558594 4.050781 -2.574219 3.9375 -2.574219 C 3.859375 -2.574219 3.78125 -2.558594 3.703125 -2.523438 C 3.625 -2.488281 3.539062 -2.4375 3.449219 -2.375 L 3.449219 0 L 2.398438 0 L 2.398438 -1.675781 C 2.398438 -1.835938 2.394531 -1.976562 2.386719 -2.089844 C 2.382812 -2.203125 2.363281 -2.296875 2.332031 -2.367188 C 2.304688 -2.441406 2.257812 -2.492188 2.195312 -2.527344 C 2.132812 -2.558594 2.042969 -2.574219 1.933594 -2.574219 C 1.847656 -2.574219 1.765625 -2.554688 1.683594 -2.515625 C 1.601562 -2.476562 1.523438 -2.429688 1.445312 -2.375 L 1.445312 0 L 0.398438 0 L 0.398438 -3.351562 L 1.445312 -3.351562 L 1.445312 -2.980469 C 1.613281 -3.125 1.777344 -3.238281 1.925781 -3.320312 C 2.078125 -3.402344 2.25 -3.441406 2.4375 -3.441406 C 2.644531 -3.441406 2.824219 -3.394531 2.976562 -3.296875 C 3.132812 -3.199219 3.25 -3.054688 3.332031 -2.863281 C 3.535156 -3.046875 3.722656 -3.191406 3.902344 -3.292969 C 4.078125 -3.394531 4.261719 -3.441406 4.441406 -3.441406 C 4.597656 -3.441406 4.738281 -3.417969 4.859375 -3.367188 C 4.984375 -3.320312 5.089844 -3.246094 5.171875 -3.144531 C 5.265625 -3.039062 5.335938 -2.910156 5.382812 -2.761719 C 5.429688 -2.613281 5.453125 -2.417969 5.453125 -2.179688 L 5.453125 0 Z "/>
</g>
<g id="glyph-0-6">
</g>
<g id="glyph-1-0">
<path d="M 3.433594 -3.59375 L 1.570312 -3.59375 L 1.570312 -2.757812 L 3.285156 -2.757812 L 3.285156 -1.910156 L 1.570312 -1.910156 L 1.570312 0 L 0.460938 0 L 0.460938 -4.441406 L 3.433594 -4.441406 Z "/>
</g>
<g id="glyph-1-1">
<path d="M 3.617188 -1.675781 C 3.617188 -1.121094 3.464844 -0.6875 3.164062 -0.371094 C 2.863281 -0.0546875 2.4375 0.105469 1.886719 0.105469 C 1.339844 0.105469 0.914062 -0.0546875 0.609375 -0.371094 C 0.308594 -0.6875 0.15625 -1.121094 0.15625 -1.675781 C 0.15625 -2.230469 0.308594 -2.667969 0.609375 -2.980469 C 0.914062 -3.296875 1.339844 -3.457031 1.886719 -3.457031 C 2.433594 -3.457031 2.859375 -3.296875 3.164062 -2.980469 C 3.464844 -2.660156 3.617188 -2.226562 3.617188 -1.675781 M 2.546875 -1.667969 C 2.546875 -1.867188 2.527344 -2.03125 2.496094 -2.164062 C 2.464844 -2.296875 2.417969 -2.402344 2.359375 -2.484375 C 2.296875 -2.566406 2.230469 -2.625 2.152344 -2.65625 C 2.074219 -2.691406 1.984375 -2.707031 1.886719 -2.707031 C 1.792969 -2.707031 1.707031 -2.691406 1.632812 -2.664062 C 1.554688 -2.632812 1.488281 -2.578125 1.421875 -2.496094 C 1.363281 -2.417969 1.316406 -2.3125 1.28125 -2.179688 C 1.246094 -2.042969 1.226562 -1.871094 1.226562 -1.667969 C 1.226562 -1.464844 1.242188 -1.296875 1.277344 -1.171875 C 1.3125 -1.042969 1.355469 -0.945312 1.410156 -0.867188 C 1.464844 -0.789062 1.535156 -0.734375 1.617188 -0.699219 C 1.699219 -0.664062 1.792969 -0.644531 1.894531 -0.644531 C 1.976562 -0.644531 2.0625 -0.664062 2.148438 -0.699219 C 2.234375 -0.734375 2.304688 -0.789062 2.355469 -0.859375 C 2.417969 -0.945312 2.464844 -1.046875 2.496094 -1.167969 C 2.527344 -1.289062 2.546875 -1.453125 2.546875 -1.667969 Z "/>
</g>
<g id="glyph-1-2">
<path d="M 2.648438 -2.363281 L 2.5625 -2.363281 C 2.523438 -2.378906 2.464844 -2.386719 2.390625 -2.394531 C 2.3125 -2.402344 2.230469 -2.40625 2.140625 -2.40625 C 2.03125 -2.40625 1.914062 -2.390625 1.792969 -2.355469 C 1.675781 -2.324219 1.558594 -2.289062 1.445312 -2.242188 L 1.445312 0 L 0.398438 0 L 0.398438 -3.351562 L 1.445312 -3.351562 L 1.445312 -2.871094 C 1.492188 -2.914062 1.558594 -2.96875 1.640625 -3.035156 C 1.726562 -3.101562 1.804688 -3.15625 1.875 -3.195312 C 1.949219 -3.242188 2.039062 -3.28125 2.136719 -3.3125 C 2.238281 -3.347656 2.332031 -3.363281 2.421875 -3.363281 C 2.457031 -3.363281 2.496094 -3.363281 2.535156 -3.359375 C 2.578125 -3.359375 2.617188 -3.355469 2.648438 -3.351562 Z "/>
</g>
<g id="glyph-1-3">
<path d="M 2.117188 0.0898438 C 1.484375 0.0898438 1 -0.0625 0.660156 -0.363281 C 0.324219 -0.667969 0.15625 -1.097656 0.15625 -1.65625 C 0.15625 -2.203125 0.3125 -2.640625 0.625 -2.964844 C 0.941406 -3.292969 1.378906 -3.457031 1.945312 -3.457031 C 2.457031 -3.457031 2.84375 -3.316406 3.101562 -3.039062 C 3.363281 -2.765625 3.492188 -2.367188 3.492188 -1.851562 L 3.492188 -1.476562 L 1.203125 -1.476562 C 1.210938 -1.320312 1.246094 -1.191406 1.300781 -1.085938 C 1.355469 -0.984375 1.429688 -0.898438 1.523438 -0.839844 C 1.609375 -0.777344 1.714844 -0.734375 1.835938 -0.707031 C 1.953125 -0.679688 2.085938 -0.664062 2.226562 -0.664062 C 2.347656 -0.664062 2.464844 -0.679688 2.582031 -0.707031 C 2.703125 -0.734375 2.808594 -0.769531 2.90625 -0.8125 C 2.992188 -0.847656 3.070312 -0.890625 3.144531 -0.933594 C 3.214844 -0.976562 3.273438 -1.015625 3.320312 -1.050781 L 3.429688 -1.050781 L 3.429688 -0.1875 C 3.347656 -0.152344 3.269531 -0.121094 3.195312 -0.09375 C 3.125 -0.0664062 3.03125 -0.0351562 2.90625 -0.0078125 C 2.792969 0.0234375 2.675781 0.046875 2.554688 0.0625 C 2.433594 0.0820312 2.289062 0.0898438 2.117188 0.0898438 M 2.460938 -2.105469 C 2.457031 -2.328125 2.40625 -2.496094 2.308594 -2.609375 C 2.210938 -2.726562 2.0625 -2.785156 1.863281 -2.785156 C 1.660156 -2.785156 1.503906 -2.722656 1.390625 -2.601562 C 1.273438 -2.480469 1.210938 -2.316406 1.199219 -2.105469 Z "/>
</g>
<g id="glyph-1-4">
<path d="M 1.421875 0.09375 C 1.171875 0.09375 0.941406 0.0664062 0.71875 0.0117188 C 0.5 -0.0429688 0.320312 -0.105469 0.175781 -0.175781 L 0.175781 -1.058594 L 0.261719 -1.058594 C 0.3125 -1.019531 0.367188 -0.980469 0.433594 -0.933594 C 0.496094 -0.886719 0.585938 -0.839844 0.699219 -0.789062 C 0.796875 -0.746094 0.90625 -0.707031 1.027344 -0.671875 C 1.148438 -0.640625 1.28125 -0.625 1.425781 -0.625 C 1.574219 -0.625 1.703125 -0.644531 1.816406 -0.691406 C 1.929688 -0.738281 1.984375 -0.8125 1.984375 -0.910156 C 1.984375 -0.988281 1.957031 -1.046875 1.90625 -1.085938 C 1.855469 -1.125 1.753906 -1.164062 1.605469 -1.199219 C 1.527344 -1.21875 1.425781 -1.242188 1.304688 -1.261719 C 1.183594 -1.285156 1.074219 -1.3125 0.980469 -1.34375 C 0.71875 -1.425781 0.523438 -1.546875 0.390625 -1.707031 C 0.257812 -1.867188 0.191406 -2.074219 0.191406 -2.335938 C 0.191406 -2.484375 0.226562 -2.625 0.292969 -2.757812 C 0.363281 -2.890625 0.464844 -3.007812 0.597656 -3.113281 C 0.730469 -3.214844 0.894531 -3.292969 1.089844 -3.355469 C 1.285156 -3.414062 1.507812 -3.441406 1.753906 -3.441406 C 1.988281 -3.441406 2.203125 -3.417969 2.402344 -3.375 C 2.597656 -3.328125 2.765625 -3.269531 2.898438 -3.203125 L 2.898438 -2.355469 L 2.816406 -2.355469 C 2.78125 -2.386719 2.722656 -2.421875 2.648438 -2.46875 C 2.570312 -2.515625 2.492188 -2.554688 2.417969 -2.589844 C 2.332031 -2.628906 2.234375 -2.664062 2.125 -2.6875 C 2.015625 -2.714844 1.90625 -2.726562 1.792969 -2.726562 C 1.640625 -2.726562 1.515625 -2.703125 1.410156 -2.648438 C 1.304688 -2.597656 1.253906 -2.527344 1.253906 -2.445312 C 1.253906 -2.367188 1.277344 -2.308594 1.332031 -2.265625 C 1.382812 -2.222656 1.496094 -2.179688 1.667969 -2.136719 C 1.757812 -2.113281 1.859375 -2.09375 1.976562 -2.070312 C 2.09375 -2.050781 2.203125 -2.023438 2.3125 -1.988281 C 2.554688 -1.910156 2.734375 -1.796875 2.859375 -1.644531 C 2.984375 -1.496094 3.046875 -1.296875 3.046875 -1.046875 C 3.046875 -0.890625 3.007812 -0.742188 2.9375 -0.597656 C 2.863281 -0.457031 2.757812 -0.335938 2.621094 -0.238281 C 2.480469 -0.132812 2.3125 -0.0507812 2.117188 0.0078125 C 1.921875 0.0625 1.691406 0.09375 1.421875 0.09375 Z "/>
</g>
<g id="glyph-1-5">
<path d="M 1.683594 0.0664062 C 1.257812 0.0664062 0.949219 -0.0234375 0.753906 -0.195312 C 0.558594 -0.371094 0.460938 -0.660156 0.460938 -1.054688 L 0.460938 -2.621094 L 0.0625 -2.621094 L 0.0625 -3.351562 L 0.460938 -3.351562 L 0.460938 -4.308594 L 1.507812 -4.308594 L 1.507812 -3.351562 L 2.511719 -3.351562 L 2.511719 -2.621094 L 1.507812 -2.621094 L 1.507812 -1.433594 C 1.507812 -1.316406 1.507812 -1.214844 1.511719 -1.128906 C 1.511719 -1.039062 1.527344 -0.960938 1.558594 -0.890625 C 1.585938 -0.824219 1.632812 -0.765625 1.707031 -0.726562 C 1.777344 -0.6875 1.878906 -0.664062 2.015625 -0.664062 C 2.070312 -0.664062 2.144531 -0.675781 2.234375 -0.703125 C 2.324219 -0.726562 2.386719 -0.746094 2.421875 -0.765625 L 2.511719 -0.765625 L 2.511719 -0.03125 C 2.398438 0 2.277344 0.0234375 2.152344 0.0390625 C 2.023438 0.0585938 1.867188 0.0664062 1.683594 0.0664062 Z "/>
</g>
</g>
</defs>
<g fill="rgb(96.078431%, 61.960784%, 4.313725%)" fill-opacity="1">
<use xlink:href="#glyph-0-0" x="30" y="26.113281"/>
<use xlink:href="#glyph-0-1" x="34" y="26.113281"/>
<use xlink:href="#glyph-0-2" x="38" y="26.113281"/>
<use xlink:href="#glyph-0-3" x="42" y="26.113281"/>
<use xlink:href="#glyph-0-4" x="46" y="26.113281"/>
<use xlink:href="#glyph-0-5" x="50" y="26.113281"/>
<use xlink:href="#glyph-0-6" x="56" y="26.113281"/>
</g>
<g fill="rgb(96.078431%, 61.960784%, 4.313725%)" fill-opacity="1">
<use xlink:href="#glyph-1-0" x="30" y="32.070312"/>
<use xlink:href="#glyph-1-1" x="34" y="32.070312"/>
<use xlink:href="#glyph-1-2" x="38" y="32.070312"/>
<use xlink:href="#glyph-1-3" x="41" y="32.070312"/>
<use xlink:href="#glyph-1-4" x="45" y="32.070312"/>
<use xlink:href="#glyph-1-5" x="48" y="32.070312"/>
</g>
</svg>
