<?xml version="1.0" encoding="UTF-8" standalone="no"?>
<!DOCTYPE svg PUBLIC "-//W3C//DTD SVG 1.1//EN"
 "http://www.w3.org/Graphics/SVG/1.1/DTD/svg11.dtd">
<!-- Generated by graphviz version 14.1.5 (20260411.2331)
 -->
<!-- Pages: 1 -->
<svg width="5533pt" height="1013pt"
 viewBox="0.00 0.00 5533.00 1013.00" xmlns="http://www.w3.org/2000/svg" xmlns:xlink="http://www.w3.org/1999/xlink">
<g id="graph0" class="graph" transform="scale(1.44144 1.44144) rotate(0) translate(4 698.5)">
<polygon fill="#ffffff" stroke="none" points="-4,4 -4,-698.5 3834.75,-698.5 3834.75,4 -4,4"/>
<text xml:space="preserve" text-anchor="middle" x="1915.38" y="-675.3" font-family="Helvetica,sans-Serif" font-size="16.00" fill="#333333">SpectralCNN Architecture</text>
<text xml:space="preserve" text-anchor="middle" x="1915.38" y="-656.55" font-family="Helvetica,sans-Serif" font-size="16.00" fill="#333333">Left&#45;to&#45;Right Flow</text>
<!-- 2683405469264 -->
<g id="node1" class="node">
<title>2683405469264</title>
<polygon fill="#caff70" stroke="#333333" stroke-width="1.2" points="3830.75,-105.75 3776.75,-105.75 3776.75,-77.25 3830.75,-77.25 3830.75,-105.75"/>
<text xml:space="preserve" text-anchor="middle" x="3803.75" y="-83.2" font-family="Helvetica,sans-Serif" font-size="9.00"> (1, 6)</text>
</g>
<!-- 2682523482720 -->
<g id="node2" class="node">
<title>2682523482720</title>
<polygon fill="#f0f0f0" stroke="#333333" stroke-width="1.2" points="3733.75,-100.75 3640.5,-100.75 3640.5,-82.25 3733.75,-82.25 3733.75,-100.75"/>
<text xml:space="preserve" text-anchor="middle" x="3687.12" y="-88.2" font-family="Helvetica,sans-Serif" font-size="9.00">AddmmBackward0</text>
</g>
<!-- 2682523482720&#45;&gt;2683405469264 -->
<g id="edge61" class="edge">
<title>2682523482720&#45;&gt;2683405469264</title>
<path fill="none" stroke="#555555" d="M3734.22,-91.5C3734.22,-91.5 3767.77,-91.5 3767.77,-91.5"/>
<polygon fill="#555555" stroke="#555555" points="3767.77,-93.95 3774.77,-91.5 3767.77,-89.05 3767.77,-93.95"/>
</g>
<!-- 2683397300256 -->
<g id="node3" class="node">
<title>2683397300256</title>
<polygon fill="#f0f0f0" stroke="#333333" stroke-width="1.2" points="3597.5,-150.75 3513.25,-150.75 3513.25,-132.25 3597.5,-132.25 3597.5,-150.75"/>
<text xml:space="preserve" text-anchor="middle" x="3555.38" y="-138.2" font-family="Helvetica,sans-Serif" font-size="9.00">AccumulateGrad</text>
</g>
<!-- 2683397300256&#45;&gt;2682523482720 -->
<g id="edge1" class="edge">
<title>2683397300256&#45;&gt;2682523482720</title>
<path fill="none" stroke="#555555" d="M3598.03,-141.5C3636.39,-141.5 3686.75,-141.5 3686.75,-141.5 3686.75,-141.5 3686.75,-109.65 3686.75,-109.65"/>
<polygon fill="#555555" stroke="#555555" points="3689.2,-109.65 3686.75,-102.65 3684.3,-109.65 3689.2,-109.65"/>
</g>
<!-- 2683399809056 -->
<g id="node4" class="node">
<title>2683399809056</title>
<polygon fill="lightblue" stroke="#333333" stroke-width="1.2" points="3430.38,-159 3376.38,-159 3376.38,-130 3430.38,-130 3430.38,-159"/>
<text xml:space="preserve" text-anchor="middle" x="3403.38" y="-146.45" font-family="Helvetica,sans-Serif" font-size="9.00">clf.4.bias</text>
<text xml:space="preserve" text-anchor="middle" x="3403.38" y="-135.95" font-family="Helvetica,sans-Serif" font-size="9.00"> (6)</text>
</g>
<!-- 2683399809056&#45;&gt;2683397300256 -->
<g id="edge2" class="edge">
<title>2683399809056&#45;&gt;2683397300256</title>
<path fill="none" stroke="#555555" d="M3430.9,-141.5C3430.9,-141.5 3504.32,-141.5 3504.32,-141.5"/>
<polygon fill="#555555" stroke="#555555" points="3504.32,-143.95 3511.32,-141.5 3504.32,-139.05 3504.32,-143.95"/>
</g>
<!-- 2683392353824 -->
<g id="node5" class="node">
<title>2683392353824</title>
<polygon fill="#c8f7c5" stroke="#333333" stroke-width="1.2" points="3596,-100.75 3514.75,-100.75 3514.75,-82.25 3596,-82.25 3596,-100.75"/>
<text xml:space="preserve" text-anchor="middle" x="3555.38" y="-88.2" font-family="Helvetica,sans-Serif" font-size="9.00">ReluBackward0</text>
</g>
<!-- 2683392353824&#45;&gt;2682523482720 -->
<g id="edge3" class="edge">
<title>2683392353824&#45;&gt;2682523482720</title>
<path fill="none" stroke="#555555" d="M3596.34,-91.5C3596.34,-91.5 3631.69,-91.5 3631.69,-91.5"/>
<polygon fill="#555555" stroke="#555555" points="3631.69,-93.95 3638.69,-91.5 3631.69,-89.05 3631.69,-93.95"/>
</g>
<!-- 2683397302032 -->
<g id="node6" class="node">
<title>2683397302032</title>
<polygon fill="#ffd6a8" stroke="#333333" stroke-width="1.2" points="3470.25,-100.75 3336.5,-100.75 3336.5,-82.25 3470.25,-82.25 3470.25,-100.75"/>
<text xml:space="preserve" text-anchor="middle" x="3403.38" y="-88.2" font-family="Helvetica,sans-Serif" font-size="9.00">NativeBatchNormBackward0</text>
</g>
<!-- 2683397302032&#45;&gt;2683392353824 -->
<g id="edge4" class="edge">
<title>2683397302032&#45;&gt;2683392353824</title>
<path fill="none" stroke="#555555" d="M3470.49,-91.5C3470.49,-91.5 3505.87,-91.5 3505.87,-91.5"/>
<polygon fill="#555555" stroke="#555555" points="3505.87,-93.95 3512.87,-91.5 3505.87,-89.05 3505.87,-93.95"/>
</g>
<!-- 2683403576048 -->
<g id="node7" class="node">
<title>2683403576048</title>
<polygon fill="#f0f0f0" stroke="#333333" stroke-width="1.2" points="3293.5,-201.75 3200.25,-201.75 3200.25,-183.25 3293.5,-183.25 3293.5,-201.75"/>
<text xml:space="preserve" text-anchor="middle" x="3246.88" y="-189.2" font-family="Helvetica,sans-Serif" font-size="9.00">AddmmBackward0</text>
</g>
<!-- 2683403576048&#45;&gt;2683397302032 -->
<g id="edge5" class="edge">
<title>2683403576048&#45;&gt;2683397302032</title>
<path fill="none" stroke="#555555" d="M3294.01,-192.5C3326.09,-192.5 3362.75,-192.5 3362.75,-192.5 3362.75,-192.5 3362.75,-109.7 3362.75,-109.7"/>
<polygon fill="#555555" stroke="#555555" points="3365.2,-109.7 3362.75,-102.7 3360.3,-109.7 3365.2,-109.7"/>
</g>
<!-- 2683391439296 -->
<g id="node8" class="node">
<title>2683391439296</title>
<polygon fill="#f0f0f0" stroke="#333333" stroke-width="1.2" points="3157.25,-276.75 3073,-276.75 3073,-258.25 3157.25,-258.25 3157.25,-276.75"/>
<text xml:space="preserve" text-anchor="middle" x="3115.12" y="-264.2" font-family="Helvetica,sans-Serif" font-size="9.00">AccumulateGrad</text>
</g>
<!-- 2683391439296&#45;&gt;2683403576048 -->
<g id="edge6" class="edge">
<title>2683391439296&#45;&gt;2683403576048</title>
<path fill="none" stroke="#555555" d="M3157.5,-267.5C3195.97,-267.5 3246.75,-267.5 3246.75,-267.5 3246.75,-267.5 3246.75,-210.82 3246.75,-210.82"/>
<polygon fill="#555555" stroke="#555555" points="3249.2,-210.82 3246.75,-203.82 3244.3,-210.82 3249.2,-210.82"/>
</g>
<!-- 2683404190736 -->
<g id="node9" class="node">
<title>2683404190736</title>
<polygon fill="lightblue" stroke="#333333" stroke-width="1.2" points="3007.75,-284 2953.75,-284 2953.75,-255 3007.75,-255 3007.75,-284"/>
<text xml:space="preserve" text-anchor="middle" x="2980.75" y="-271.45" font-family="Helvetica,sans-Serif" font-size="9.00">clf.0.bias</text>
<text xml:space="preserve" text-anchor="middle" x="2980.75" y="-260.95" font-family="Helvetica,sans-Serif" font-size="9.00"> (128)</text>
</g>
<!-- 2683404190736&#45;&gt;2683391439296 -->
<g id="edge7" class="edge">
<title>2683404190736&#45;&gt;2683391439296</title>
<path fill="none" stroke="#555555" d="M3008.27,-267.5C3008.27,-267.5 3064.04,-267.5 3064.04,-267.5"/>
<polygon fill="#555555" stroke="#555555" points="3064.04,-269.95 3071.04,-267.5 3064.04,-265.05 3064.04,-269.95"/>
</g>
<!-- 2683391441696 -->
<g id="node10" class="node">
<title>2683391441696</title>
<polygon fill="#f0f0f0" stroke="#333333" stroke-width="1.2" points="3156.12,-225.75 3074.12,-225.75 3074.12,-207.25 3156.12,-207.25 3156.12,-225.75"/>
<text xml:space="preserve" text-anchor="middle" x="3115.12" y="-213.2" font-family="Helvetica,sans-Serif" font-size="9.00">ViewBackward0</text>
</g>
<!-- 2683391441696&#45;&gt;2683403576048 -->
<g id="edge8" class="edge">
<title>2683391441696&#45;&gt;2683403576048</title>
<path fill="none" stroke="#555555" d="M3152.75,-207.02C3152.75,-201.49 3152.75,-195.58 3152.75,-195.58 3152.75,-195.58 3191.3,-195.58 3191.3,-195.58"/>
<polygon fill="#555555" stroke="#555555" points="3191.3,-198.03 3198.3,-195.58 3191.3,-193.13 3191.3,-198.03"/>
</g>
<!-- 2683391430464 -->
<g id="node11" class="node">
<title>2683391430464</title>
<polygon fill="#f0f0f0" stroke="#333333" stroke-width="1.2" points="3030,-225.75 2931.5,-225.75 2931.5,-207.25 3030,-207.25 3030,-225.75"/>
<text xml:space="preserve" text-anchor="middle" x="2980.75" y="-213.2" font-family="Helvetica,sans-Serif" font-size="9.00">SqueezeBackward1</text>
</g>
<!-- 2683391430464&#45;&gt;2683391441696 -->
<g id="edge9" class="edge">
<title>2683391430464&#45;&gt;2683391441696</title>
<path fill="none" stroke="#555555" d="M3030.4,-216.5C3030.4,-216.5 3065.09,-216.5 3065.09,-216.5"/>
<polygon fill="#555555" stroke="#555555" points="3065.09,-218.95 3072.09,-216.5 3065.09,-214.05 3065.09,-218.95"/>
</g>
<!-- 2683393787984 -->
<g id="node12" class="node">
<title>2683393787984</title>
<polygon fill="#ffcccc" stroke="#333333" stroke-width="1.2" points="2888.5,-227.75 2742.75,-227.75 2742.75,-209.25 2888.5,-209.25 2888.5,-227.75"/>
<text xml:space="preserve" text-anchor="middle" x="2815.62" y="-215.2" font-family="Helvetica,sans-Serif" font-size="9.00">AdaptiveMaxPool2DBackward0</text>
</g>
<!-- 2683393787984&#45;&gt;2683391430464 -->
<g id="edge10" class="edge">
<title>2683393787984&#45;&gt;2683391430464</title>
<path fill="none" stroke="#555555" d="M2889.01,-217.5C2889.01,-217.5 2922.77,-217.5 2922.77,-217.5"/>
<polygon fill="#555555" stroke="#555555" points="2922.77,-219.95 2929.77,-217.5 2922.77,-215.05 2922.77,-219.95"/>
</g>
<!-- 2683393788608 -->
<g id="node13" class="node">
<title>2683393788608</title>
<polygon fill="#f0f0f0" stroke="#333333" stroke-width="1.2" points="2699.75,-227.75 2590.75,-227.75 2590.75,-209.25 2699.75,-209.25 2699.75,-227.75"/>
<text xml:space="preserve" text-anchor="middle" x="2645.25" y="-215.2" font-family="Helvetica,sans-Serif" font-size="9.00">UnsqueezeBackward0</text>
</g>
<!-- 2683393788608&#45;&gt;2683393787984 -->
<g id="edge11" class="edge">
<title>2683393788608&#45;&gt;2683393787984</title>
<path fill="none" stroke="#555555" d="M2700.1,-218.5C2700.1,-218.5 2733.73,-218.5 2733.73,-218.5"/>
<polygon fill="#555555" stroke="#555555" points="2733.73,-220.95 2740.73,-218.5 2733.73,-216.05 2733.73,-220.95"/>
</g>
<!-- 2683393794800 -->
<g id="node14" class="node">
<title>2683393794800</title>
<polygon fill="#c8f7c5" stroke="#333333" stroke-width="1.2" points="2547.75,-227.75 2466.5,-227.75 2466.5,-209.25 2547.75,-209.25 2547.75,-227.75"/>
<text xml:space="preserve" text-anchor="middle" x="2507.12" y="-215.2" font-family="Helvetica,sans-Serif" font-size="9.00">ReluBackward0</text>
</g>
<!-- 2683393794800&#45;&gt;2683393788608 -->
<g id="edge12" class="edge">
<title>2683393794800&#45;&gt;2683393788608</title>
<path fill="none" stroke="#555555" d="M2548.19,-218.5C2548.19,-218.5 2581.76,-218.5 2581.76,-218.5"/>
<polygon fill="#555555" stroke="#555555" points="2581.76,-220.95 2588.76,-218.5 2581.76,-216.05 2581.76,-220.95"/>
</g>
<!-- 2683400065888 -->
<g id="node15" class="node">
<title>2683400065888</title>
<polygon fill="#ffd6a8" stroke="#333333" stroke-width="1.2" points="2423.5,-227.75 2289.75,-227.75 2289.75,-209.25 2423.5,-209.25 2423.5,-227.75"/>
<text xml:space="preserve" text-anchor="middle" x="2356.62" y="-215.2" font-family="Helvetica,sans-Serif" font-size="9.00">NativeBatchNormBackward0</text>
</g>
<!-- 2683400065888&#45;&gt;2683393794800 -->
<g id="edge13" class="edge">
<title>2683400065888&#45;&gt;2683393794800</title>
<path fill="none" stroke="#555555" d="M2423.95,-218.5C2423.95,-218.5 2457.67,-218.5 2457.67,-218.5"/>
<polygon fill="#555555" stroke="#555555" points="2457.67,-220.95 2464.67,-218.5 2457.67,-216.05 2457.67,-220.95"/>
</g>
<!-- 2683393177248 -->
<g id="node16" class="node">
<title>2683393177248</title>
<polygon fill="#a8d5ff" stroke="#333333" stroke-width="1.2" points="2246.75,-304.75 2135.5,-304.75 2135.5,-286.25 2246.75,-286.25 2246.75,-304.75"/>
<text xml:space="preserve" text-anchor="middle" x="2191.12" y="-292.2" font-family="Helvetica,sans-Serif" font-size="9.00">ConvolutionBackward0</text>
</g>
<!-- 2683393177248&#45;&gt;2683400065888 -->
<g id="edge14" class="edge">
<title>2683393177248&#45;&gt;2683400065888</title>
<path fill="none" stroke="#555555" d="M2239.75,-285.84C2239.75,-265.8 2239.75,-221.58 2239.75,-221.58 2239.75,-221.58 2280.8,-221.58 2280.8,-221.58"/>
<polygon fill="#555555" stroke="#555555" points="2280.8,-224.03 2287.8,-221.58 2280.8,-219.13 2280.8,-224.03"/>
</g>
<!-- 2683402919152 -->
<g id="node17" class="node">
<title>2683402919152</title>
<polygon fill="#f0f0f0" stroke="#333333" stroke-width="1.2" points="2092.5,-379.75 1994,-379.75 1994,-361.25 2092.5,-361.25 2092.5,-379.75"/>
<text xml:space="preserve" text-anchor="middle" x="2043.25" y="-367.2" font-family="Helvetica,sans-Serif" font-size="9.00">SqueezeBackward1</text>
</g>
<!-- 2683402919152&#45;&gt;2683393177248 -->
<g id="edge15" class="edge">
<title>2683402919152&#45;&gt;2683393177248</title>
<path fill="none" stroke="#555555" d="M2088.75,-360.68C2088.75,-340.33 2088.75,-295.42 2088.75,-295.42 2088.75,-295.42 2126.63,-295.42 2126.63,-295.42"/>
<polygon fill="#555555" stroke="#555555" points="2126.63,-297.87 2133.63,-295.42 2126.63,-292.97 2126.63,-297.87"/>
</g>
<!-- 2683403919584 -->
<g id="node18" class="node">
<title>2683403919584</title>
<polygon fill="#ffcccc" stroke="#333333" stroke-width="1.2" points="1951,-381.75 1794,-381.75 1794,-363.25 1951,-363.25 1951,-381.75"/>
<text xml:space="preserve" text-anchor="middle" x="1872.5" y="-369.2" font-family="Helvetica,sans-Serif" font-size="9.00">MaxPool2DWithIndicesBackward0</text>
</g>
<!-- 2683403919584&#45;&gt;2683402919152 -->
<g id="edge16" class="edge">
<title>2683403919584&#45;&gt;2683402919152</title>
<path fill="none" stroke="#555555" d="M1951.38,-371.5C1951.38,-371.5 1984.96,-371.5 1984.96,-371.5"/>
<polygon fill="#555555" stroke="#555555" points="1984.96,-373.95 1991.96,-371.5 1984.96,-369.05 1984.96,-373.95"/>
</g>
<!-- 2683403919680 -->
<g id="node19" class="node">
<title>2683403919680</title>
<polygon fill="#f0f0f0" stroke="#333333" stroke-width="1.2" points="1751,-381.75 1642,-381.75 1642,-363.25 1751,-363.25 1751,-381.75"/>
<text xml:space="preserve" text-anchor="middle" x="1696.5" y="-369.2" font-family="Helvetica,sans-Serif" font-size="9.00">UnsqueezeBackward0</text>
</g>
<!-- 2683403919680&#45;&gt;2683403919584 -->
<g id="edge17" class="edge">
<title>2683403919680&#45;&gt;2683403919584</title>
<path fill="none" stroke="#555555" d="M1751.22,-372.5C1751.22,-372.5 1785.07,-372.5 1785.07,-372.5"/>
<polygon fill="#555555" stroke="#555555" points="1785.07,-374.95 1792.07,-372.5 1785.07,-370.05 1785.07,-374.95"/>
</g>
<!-- 2683403919776 -->
<g id="node20" class="node">
<title>2683403919776</title>
<polygon fill="#c8f7c5" stroke="#333333" stroke-width="1.2" points="1599,-381.75 1517.75,-381.75 1517.75,-363.25 1599,-363.25 1599,-381.75"/>
<text xml:space="preserve" text-anchor="middle" x="1558.38" y="-369.2" font-family="Helvetica,sans-Serif" font-size="9.00">ReluBackward0</text>
</g>
<!-- 2683403919776&#45;&gt;2683403919680 -->
<g id="edge18" class="edge">
<title>2683403919776&#45;&gt;2683403919680</title>
<path fill="none" stroke="#555555" d="M1599.44,-372.5C1599.44,-372.5 1633.01,-372.5 1633.01,-372.5"/>
<polygon fill="#555555" stroke="#555555" points="1633.01,-374.95 1640.01,-372.5 1633.01,-370.05 1633.01,-374.95"/>
</g>
<!-- 2683403919920 -->
<g id="node21" class="node">
<title>2683403919920</title>
<polygon fill="#ffd6a8" stroke="#333333" stroke-width="1.2" points="1474.75,-381.75 1341,-381.75 1341,-363.25 1474.75,-363.25 1474.75,-381.75"/>
<text xml:space="preserve" text-anchor="middle" x="1407.88" y="-369.2" font-family="Helvetica,sans-Serif" font-size="9.00">NativeBatchNormBackward0</text>
</g>
<!-- 2683403919920&#45;&gt;2683403919776 -->
<g id="edge19" class="edge">
<title>2683403919920&#45;&gt;2683403919776</title>
<path fill="none" stroke="#555555" d="M1475.2,-372.5C1475.2,-372.5 1508.92,-372.5 1508.92,-372.5"/>
<polygon fill="#555555" stroke="#555555" points="1508.92,-374.95 1515.92,-372.5 1508.92,-370.05 1508.92,-374.95"/>
</g>
<!-- 2683403920016 -->
<g id="node22" class="node">
<title>2683403920016</title>
<polygon fill="#a8d5ff" stroke="#333333" stroke-width="1.2" points="1298,-458.75 1186.75,-458.75 1186.75,-440.25 1298,-440.25 1298,-458.75"/>
<text xml:space="preserve" text-anchor="middle" x="1242.38" y="-446.2" font-family="Helvetica,sans-Serif" font-size="9.00">ConvolutionBackward0</text>
</g>
<!-- 2683403920016&#45;&gt;2683403919920 -->
<g id="edge20" class="edge">
<title>2683403920016&#45;&gt;2683403919920</title>
<path fill="none" stroke="#555555" d="M1290.75,-439.84C1290.75,-419.8 1290.75,-375.58 1290.75,-375.58 1290.75,-375.58 1331.91,-375.58 1331.91,-375.58"/>
<polygon fill="#555555" stroke="#555555" points="1331.91,-378.03 1338.91,-375.58 1331.91,-373.13 1331.91,-378.03"/>
</g>
<!-- 2683403920256 -->
<g id="node23" class="node">
<title>2683403920256</title>
<polygon fill="#f0f0f0" stroke="#333333" stroke-width="1.2" points="1143.75,-533.75 1045.25,-533.75 1045.25,-515.25 1143.75,-515.25 1143.75,-533.75"/>
<text xml:space="preserve" text-anchor="middle" x="1094.5" y="-521.2" font-family="Helvetica,sans-Serif" font-size="9.00">SqueezeBackward1</text>
</g>
<!-- 2683403920256&#45;&gt;2683403920016 -->
<g id="edge21" class="edge">
<title>2683403920256&#45;&gt;2683403920016</title>
<path fill="none" stroke="#555555" d="M1139.75,-514.68C1139.75,-494.33 1139.75,-449.42 1139.75,-449.42 1139.75,-449.42 1177.74,-449.42 1177.74,-449.42"/>
<polygon fill="#555555" stroke="#555555" points="1177.74,-451.87 1184.74,-449.42 1177.74,-446.97 1177.74,-451.87"/>
</g>
<!-- 2683403920448 -->
<g id="node24" class="node">
<title>2683403920448</title>
<polygon fill="#ffcccc" stroke="#333333" stroke-width="1.2" points="1002.25,-535.75 845.25,-535.75 845.25,-517.25 1002.25,-517.25 1002.25,-535.75"/>
<text xml:space="preserve" text-anchor="middle" x="923.75" y="-523.2" font-family="Helvetica,sans-Serif" font-size="9.00">MaxPool2DWithIndicesBackward0</text>
</g>
<!-- 2683403920448&#45;&gt;2683403920256 -->
<g id="edge22" class="edge">
<title>2683403920448&#45;&gt;2683403920256</title>
<path fill="none" stroke="#555555" d="M1002.63,-525.5C1002.63,-525.5 1036.21,-525.5 1036.21,-525.5"/>
<polygon fill="#555555" stroke="#555555" points="1036.21,-527.95 1043.21,-525.5 1036.21,-523.05 1036.21,-527.95"/>
</g>
<!-- 2683403920544 -->
<g id="node25" class="node">
<title>2683403920544</title>
<polygon fill="#f0f0f0" stroke="#333333" stroke-width="1.2" points="802.25,-535.75 693.25,-535.75 693.25,-517.25 802.25,-517.25 802.25,-535.75"/>
<text xml:space="preserve" text-anchor="middle" x="747.75" y="-523.2" font-family="Helvetica,sans-Serif" font-size="9.00">UnsqueezeBackward0</text>
</g>
<!-- 2683403920544&#45;&gt;2683403920448 -->
<g id="edge23" class="edge">
<title>2683403920544&#45;&gt;2683403920448</title>
<path fill="none" stroke="#555555" d="M802.47,-526.5C802.47,-526.5 836.32,-526.5 836.32,-526.5"/>
<polygon fill="#555555" stroke="#555555" points="836.32,-528.95 843.32,-526.5 836.32,-524.05 836.32,-528.95"/>
</g>
<!-- 2683403920640 -->
<g id="node26" class="node">
<title>2683403920640</title>
<polygon fill="#c8f7c5" stroke="#333333" stroke-width="1.2" points="650.25,-535.75 569,-535.75 569,-517.25 650.25,-517.25 650.25,-535.75"/>
<text xml:space="preserve" text-anchor="middle" x="609.62" y="-523.2" font-family="Helvetica,sans-Serif" font-size="9.00">ReluBackward0</text>
</g>
<!-- 2683403920640&#45;&gt;2683403920544 -->
<g id="edge24" class="edge">
<title>2683403920640&#45;&gt;2683403920544</title>
<path fill="none" stroke="#555555" d="M650.69,-526.5C650.69,-526.5 684.26,-526.5 684.26,-526.5"/>
<polygon fill="#555555" stroke="#555555" points="684.26,-528.95 691.26,-526.5 684.26,-524.05 684.26,-528.95"/>
</g>
<!-- 2683403920736 -->
<g id="node27" class="node">
<title>2683403920736</title>
<polygon fill="#ffd6a8" stroke="#333333" stroke-width="1.2" points="526,-535.75 392.25,-535.75 392.25,-517.25 526,-517.25 526,-535.75"/>
<text xml:space="preserve" text-anchor="middle" x="459.12" y="-523.2" font-family="Helvetica,sans-Serif" font-size="9.00">NativeBatchNormBackward0</text>
</g>
<!-- 2683403920736&#45;&gt;2683403920640 -->
<g id="edge25" class="edge">
<title>2683403920736&#45;&gt;2683403920640</title>
<path fill="none" stroke="#555555" d="M526.45,-526.5C526.45,-526.5 560.17,-526.5 560.17,-526.5"/>
<polygon fill="#555555" stroke="#555555" points="560.17,-528.95 567.17,-526.5 560.17,-524.05 560.17,-528.95"/>
</g>
<!-- 2683403920832 -->
<g id="node28" class="node">
<title>2683403920832</title>
<polygon fill="#a8d5ff" stroke="#333333" stroke-width="1.2" points="349.25,-588.75 238,-588.75 238,-570.25 349.25,-570.25 349.25,-588.75"/>
<text xml:space="preserve" text-anchor="middle" x="293.62" y="-576.2" font-family="Helvetica,sans-Serif" font-size="9.00">ConvolutionBackward0</text>
</g>
<!-- 2683403920832&#45;&gt;2683403920736 -->
<g id="edge26" class="edge">
<title>2683403920832&#45;&gt;2683403920736</title>
<path fill="none" stroke="#555555" d="M342.75,-569.88C342.75,-555.37 342.75,-529.58 342.75,-529.58 342.75,-529.58 383.25,-529.58 383.25,-529.58"/>
<polygon fill="#555555" stroke="#555555" points="383.25,-532.03 390.25,-529.58 383.25,-527.13 383.25,-532.03"/>
</g>
<!-- 2683403921024 -->
<g id="node29" class="node">
<title>2683403921024</title>
<polygon fill="#f0f0f0" stroke="#333333" stroke-width="1.2" points="195,-641.75 110.75,-641.75 110.75,-623.25 195,-623.25 195,-641.75"/>
<text xml:space="preserve" text-anchor="middle" x="152.88" y="-629.2" font-family="Helvetica,sans-Serif" font-size="9.00">AccumulateGrad</text>
</g>
<!-- 2683403921024&#45;&gt;2683403920832 -->
<g id="edge27" class="edge">
<title>2683403921024&#45;&gt;2683403920832</title>
<path fill="none" stroke="#555555" d="M195.52,-632.5C236.99,-632.5 293.75,-632.5 293.75,-632.5 293.75,-632.5 293.75,-597.73 293.75,-597.73"/>
<polygon fill="#555555" stroke="#555555" points="296.2,-597.73 293.75,-590.73 291.3,-597.73 296.2,-597.73"/>
</g>
<!-- 2683403687856 -->
<g id="node30" class="node">
<title>2683403687856</title>
<polygon fill="lightblue" stroke="#333333" stroke-width="1.2" points="67.75,-649 0,-649 0,-620 67.75,-620 67.75,-649"/>
<text xml:space="preserve" text-anchor="middle" x="33.88" y="-636.45" font-family="Helvetica,sans-Serif" font-size="9.00">feat.0.weight</text>
<text xml:space="preserve" text-anchor="middle" x="33.88" y="-625.95" font-family="Helvetica,sans-Serif" font-size="9.00"> (32, 3, 7)</text>
</g>
<!-- 2683403687856&#45;&gt;2683403921024 -->
<g id="edge28" class="edge">
<title>2683403687856&#45;&gt;2683403921024</title>
<path fill="none" stroke="#555555" d="M68.29,-632.5C68.29,-632.5 101.99,-632.5 101.99,-632.5"/>
<polygon fill="#555555" stroke="#555555" points="101.99,-634.95 108.99,-632.5 101.99,-630.05 101.99,-634.95"/>
</g>
<!-- 2683403920976 -->
<g id="node31" class="node">
<title>2683403920976</title>
<polygon fill="#f0f0f0" stroke="#333333" stroke-width="1.2" points="195,-588.75 110.75,-588.75 110.75,-570.25 195,-570.25 195,-588.75"/>
<text xml:space="preserve" text-anchor="middle" x="152.88" y="-576.2" font-family="Helvetica,sans-Serif" font-size="9.00">AccumulateGrad</text>
</g>
<!-- 2683403920976&#45;&gt;2683403920832 -->
<g id="edge29" class="edge">
<title>2683403920976&#45;&gt;2683403920832</title>
<path fill="none" stroke="#555555" d="M195.49,-579.5C195.49,-579.5 229.12,-579.5 229.12,-579.5"/>
<polygon fill="#555555" stroke="#555555" points="229.12,-581.95 236.12,-579.5 229.12,-577.05 229.12,-581.95"/>
</g>
<!-- 2683403688208 -->
<g id="node32" class="node">
<title>2683403688208</title>
<polygon fill="lightblue" stroke="#333333" stroke-width="1.2" points="62.88,-591 4.88,-591 4.88,-562 62.88,-562 62.88,-591"/>
<text xml:space="preserve" text-anchor="middle" x="33.88" y="-578.45" font-family="Helvetica,sans-Serif" font-size="9.00">feat.0.bias</text>
<text xml:space="preserve" text-anchor="middle" x="33.88" y="-567.95" font-family="Helvetica,sans-Serif" font-size="9.00"> (32)</text>
</g>
<!-- 2683403688208&#45;&gt;2683403920976 -->
<g id="edge30" class="edge">
<title>2683403688208&#45;&gt;2683403920976</title>
<path fill="none" stroke="#555555" d="M63.29,-579.5C63.29,-579.5 101.81,-579.5 101.81,-579.5"/>
<polygon fill="#555555" stroke="#555555" points="101.81,-581.95 108.81,-579.5 101.81,-577.05 101.81,-581.95"/>
</g>
<!-- 2683403920784 -->
<g id="node33" class="node">
<title>2683403920784</title>
<polygon fill="#f0f0f0" stroke="#333333" stroke-width="1.2" points="335.75,-535.75 251.5,-535.75 251.5,-517.25 335.75,-517.25 335.75,-535.75"/>
<text xml:space="preserve" text-anchor="middle" x="293.62" y="-523.2" font-family="Helvetica,sans-Serif" font-size="9.00">AccumulateGrad</text>
</g>
<!-- 2683403920784&#45;&gt;2683403920736 -->
<g id="edge31" class="edge">
<title>2683403920784&#45;&gt;2683403920736</title>
<path fill="none" stroke="#555555" d="M336.25,-523.42C336.25,-523.42 383.41,-523.42 383.41,-523.42"/>
<polygon fill="#555555" stroke="#555555" points="383.41,-525.87 390.41,-523.42 383.41,-520.97 383.41,-525.87"/>
</g>
<!-- 2683404344288 -->
<g id="node34" class="node">
<title>2683404344288</title>
<polygon fill="lightblue" stroke="#333333" stroke-width="1.2" points="186.75,-541 119,-541 119,-512 186.75,-512 186.75,-541"/>
<text xml:space="preserve" text-anchor="middle" x="152.88" y="-528.45" font-family="Helvetica,sans-Serif" font-size="9.00">feat.1.weight</text>
<text xml:space="preserve" text-anchor="middle" x="152.88" y="-517.95" font-family="Helvetica,sans-Serif" font-size="9.00"> (32)</text>
</g>
<!-- 2683404344288&#45;&gt;2683403920784 -->
<g id="edge32" class="edge">
<title>2683404344288&#45;&gt;2683403920784</title>
<path fill="none" stroke="#555555" d="M187.31,-526.5C187.31,-526.5 242.48,-526.5 242.48,-526.5"/>
<polygon fill="#555555" stroke="#555555" points="242.48,-528.95 249.48,-526.5 242.48,-524.05 242.48,-528.95"/>
</g>
<!-- 2683403920880 -->
<g id="node35" class="node">
<title>2683403920880</title>
<polygon fill="#f0f0f0" stroke="#333333" stroke-width="1.2" points="335.75,-482.75 251.5,-482.75 251.5,-464.25 335.75,-464.25 335.75,-482.75"/>
<text xml:space="preserve" text-anchor="middle" x="293.62" y="-470.2" font-family="Helvetica,sans-Serif" font-size="9.00">AccumulateGrad</text>
</g>
<!-- 2683403920880&#45;&gt;2683403920736 -->
<g id="edge33" class="edge">
<title>2683403920880&#45;&gt;2683403920736</title>
<path fill="none" stroke="#555555" d="M336.15,-473.5C385.07,-473.5 458.75,-473.5 458.75,-473.5 458.75,-473.5 458.75,-508.27 458.75,-508.27"/>
<polygon fill="#555555" stroke="#555555" points="456.3,-508.27 458.75,-515.27 461.2,-508.27 456.3,-508.27"/>
</g>
<!-- 2683404344624 -->
<g id="node36" class="node">
<title>2683404344624</title>
<polygon fill="lightblue" stroke="#333333" stroke-width="1.2" points="181.88,-483 123.88,-483 123.88,-454 181.88,-454 181.88,-483"/>
<text xml:space="preserve" text-anchor="middle" x="152.88" y="-470.45" font-family="Helvetica,sans-Serif" font-size="9.00">feat.1.bias</text>
<text xml:space="preserve" text-anchor="middle" x="152.88" y="-459.95" font-family="Helvetica,sans-Serif" font-size="9.00"> (32)</text>
</g>
<!-- 2683404344624&#45;&gt;2683403920880 -->
<g id="edge34" class="edge">
<title>2683404344624&#45;&gt;2683403920880</title>
<path fill="none" stroke="#555555" d="M182.38,-473.5C182.38,-473.5 242.56,-473.5 242.56,-473.5"/>
<polygon fill="#555555" stroke="#555555" points="242.56,-475.95 249.56,-473.5 242.56,-471.05 242.56,-475.95"/>
</g>
<!-- 2683403920160 -->
<g id="node37" class="node">
<title>2683403920160</title>
<polygon fill="#f0f0f0" stroke="#333333" stroke-width="1.2" points="1136.62,-482.75 1052.38,-482.75 1052.38,-464.25 1136.62,-464.25 1136.62,-482.75"/>
<text xml:space="preserve" text-anchor="middle" x="1094.5" y="-470.2" font-family="Helvetica,sans-Serif" font-size="9.00">AccumulateGrad</text>
</g>
<!-- 2683403920160&#45;&gt;2683403920016 -->
<g id="edge35" class="edge">
<title>2683403920160&#45;&gt;2683403920016</title>
<path fill="none" stroke="#555555" d="M1094.75,-463.79C1094.75,-455.48 1094.75,-444.83 1094.75,-444.83 1094.75,-444.83 1178.05,-444.83 1178.05,-444.83"/>
<polygon fill="#555555" stroke="#555555" points="1178.05,-447.28 1185.05,-444.83 1178.05,-442.38 1178.05,-447.28"/>
</g>
<!-- 2683403432848 -->
<g id="node38" class="node">
<title>2683403432848</title>
<polygon fill="lightblue" stroke="#333333" stroke-width="1.2" points="957.62,-488 889.88,-488 889.88,-459 957.62,-459 957.62,-488"/>
<text xml:space="preserve" text-anchor="middle" x="923.75" y="-475.45" font-family="Helvetica,sans-Serif" font-size="9.00">feat.5.weight</text>
<text xml:space="preserve" text-anchor="middle" x="923.75" y="-464.95" font-family="Helvetica,sans-Serif" font-size="9.00"> (64, 32, 5)</text>
</g>
<!-- 2683403432848&#45;&gt;2683403920160 -->
<g id="edge36" class="edge">
<title>2683403432848&#45;&gt;2683403920160</title>
<path fill="none" stroke="#555555" d="M957.89,-473.5C957.89,-473.5 1043.42,-473.5 1043.42,-473.5"/>
<polygon fill="#555555" stroke="#555555" points="1043.42,-475.95 1050.42,-473.5 1043.42,-471.05 1043.42,-475.95"/>
</g>
<!-- 2683403920304 -->
<g id="node39" class="node">
<title>2683403920304</title>
<polygon fill="#f0f0f0" stroke="#333333" stroke-width="1.2" points="1136.62,-434.75 1052.38,-434.75 1052.38,-416.25 1136.62,-416.25 1136.62,-434.75"/>
<text xml:space="preserve" text-anchor="middle" x="1094.5" y="-422.2" font-family="Helvetica,sans-Serif" font-size="9.00">AccumulateGrad</text>
</g>
<!-- 2683403920304&#45;&gt;2683403920016 -->
<g id="edge37" class="edge">
<title>2683403920304&#45;&gt;2683403920016</title>
<path fill="none" stroke="#555555" d="M1137.17,-425.5C1164.07,-425.5 1193.75,-425.5 1193.75,-425.5 1193.75,-425.5 1193.75,-431.22 1193.75,-431.22"/>
<polygon fill="#555555" stroke="#555555" points="1191.3,-431.22 1193.75,-438.22 1196.2,-431.22 1191.3,-431.22"/>
</g>
<!-- 2683403433168 -->
<g id="node40" class="node">
<title>2683403433168</title>
<polygon fill="lightblue" stroke="#333333" stroke-width="1.2" points="952.75,-430 894.75,-430 894.75,-401 952.75,-401 952.75,-430"/>
<text xml:space="preserve" text-anchor="middle" x="923.75" y="-417.45" font-family="Helvetica,sans-Serif" font-size="9.00">feat.5.bias</text>
<text xml:space="preserve" text-anchor="middle" x="923.75" y="-406.95" font-family="Helvetica,sans-Serif" font-size="9.00"> (64)</text>
</g>
<!-- 2683403433168&#45;&gt;2683403920304 -->
<g id="edge38" class="edge">
<title>2683403433168&#45;&gt;2683403920304</title>
<path fill="none" stroke="#555555" d="M953.1,-423.12C953.1,-423.12 1043.28,-423.12 1043.28,-423.12"/>
<polygon fill="#555555" stroke="#555555" points="1043.28,-425.58 1050.28,-423.13 1043.28,-420.68 1043.28,-425.58"/>
</g>
<!-- 2683403919968 -->
<g id="node41" class="node">
<title>2683403919968</title>
<polygon fill="#f0f0f0" stroke="#333333" stroke-width="1.2" points="1284.5,-381.75 1200.25,-381.75 1200.25,-363.25 1284.5,-363.25 1284.5,-381.75"/>
<text xml:space="preserve" text-anchor="middle" x="1242.38" y="-369.2" font-family="Helvetica,sans-Serif" font-size="9.00">AccumulateGrad</text>
</g>
<!-- 2683403919968&#45;&gt;2683403919920 -->
<g id="edge39" class="edge">
<title>2683403919968&#45;&gt;2683403919920</title>
<path fill="none" stroke="#555555" d="M1285,-369.42C1285,-369.42 1332.16,-369.42 1332.16,-369.42"/>
<polygon fill="#555555" stroke="#555555" points="1332.16,-371.87 1339.16,-369.42 1332.16,-366.97 1332.16,-371.87"/>
</g>
<!-- 2683404365472 -->
<g id="node42" class="node">
<title>2683404365472</title>
<polygon fill="lightblue" stroke="#333333" stroke-width="1.2" points="1128.38,-387 1060.62,-387 1060.62,-358 1128.38,-358 1128.38,-387"/>
<text xml:space="preserve" text-anchor="middle" x="1094.5" y="-374.45" font-family="Helvetica,sans-Serif" font-size="9.00">feat.6.weight</text>
<text xml:space="preserve" text-anchor="middle" x="1094.5" y="-363.95" font-family="Helvetica,sans-Serif" font-size="9.00"> (64)</text>
</g>
<!-- 2683404365472&#45;&gt;2683403919968 -->
<g id="edge40" class="edge">
<title>2683404365472&#45;&gt;2683403919968</title>
<path fill="none" stroke="#555555" d="M1128.8,-372.5C1128.8,-372.5 1191.29,-372.5 1191.29,-372.5"/>
<polygon fill="#555555" stroke="#555555" points="1191.29,-374.95 1198.29,-372.5 1191.29,-370.05 1191.29,-374.95"/>
</g>
<!-- 2683403920064 -->
<g id="node43" class="node">
<title>2683403920064</title>
<polygon fill="#f0f0f0" stroke="#333333" stroke-width="1.2" points="1284.5,-328.75 1200.25,-328.75 1200.25,-310.25 1284.5,-310.25 1284.5,-328.75"/>
<text xml:space="preserve" text-anchor="middle" x="1242.38" y="-316.2" font-family="Helvetica,sans-Serif" font-size="9.00">AccumulateGrad</text>
</g>
<!-- 2683403920064&#45;&gt;2683403919920 -->
<g id="edge41" class="edge">
<title>2683403920064&#45;&gt;2683403919920</title>
<path fill="none" stroke="#555555" d="M1284.96,-319.5C1333.96,-319.5 1407.75,-319.5 1407.75,-319.5 1407.75,-319.5 1407.75,-354.27 1407.75,-354.27"/>
<polygon fill="#555555" stroke="#555555" points="1405.3,-354.27 1407.75,-361.27 1410.2,-354.27 1405.3,-354.27"/>
</g>
<!-- 2683403021072 -->
<g id="node44" class="node">
<title>2683403021072</title>
<polygon fill="lightblue" stroke="#333333" stroke-width="1.2" points="1123.5,-329 1065.5,-329 1065.5,-300 1123.5,-300 1123.5,-329"/>
<text xml:space="preserve" text-anchor="middle" x="1094.5" y="-316.45" font-family="Helvetica,sans-Serif" font-size="9.00">feat.6.bias</text>
<text xml:space="preserve" text-anchor="middle" x="1094.5" y="-305.95" font-family="Helvetica,sans-Serif" font-size="9.00"> (64)</text>
</g>
<!-- 2683403021072&#45;&gt;2683403920064 -->
<g id="edge42" class="edge">
<title>2683403021072&#45;&gt;2683403920064</title>
<path fill="none" stroke="#555555" d="M1124.07,-319.5C1124.07,-319.5 1191.17,-319.5 1191.17,-319.5"/>
<polygon fill="#555555" stroke="#555555" points="1191.17,-321.95 1198.17,-319.5 1191.17,-317.05 1191.17,-321.95"/>
</g>
<!-- 2683402921744 -->
<g id="node45" class="node">
<title>2683402921744</title>
<polygon fill="#f0f0f0" stroke="#333333" stroke-width="1.2" points="2085.38,-328.75 2001.12,-328.75 2001.12,-310.25 2085.38,-310.25 2085.38,-328.75"/>
<text xml:space="preserve" text-anchor="middle" x="2043.25" y="-316.2" font-family="Helvetica,sans-Serif" font-size="9.00">AccumulateGrad</text>
</g>
<!-- 2683402921744&#45;&gt;2683393177248 -->
<g id="edge43" class="edge">
<title>2683402921744&#45;&gt;2683393177248</title>
<path fill="none" stroke="#555555" d="M2042.75,-309.79C2042.75,-301.48 2042.75,-290.83 2042.75,-290.83 2042.75,-290.83 2126.52,-290.83 2126.52,-290.83"/>
<polygon fill="#555555" stroke="#555555" points="2126.52,-293.28 2133.52,-290.83 2126.52,-288.38 2126.52,-293.28"/>
</g>
<!-- 2683404099248 -->
<g id="node46" class="node">
<title>2683404099248</title>
<polygon fill="lightblue" stroke="#333333" stroke-width="1.2" points="1909,-334 1836,-334 1836,-305 1909,-305 1909,-334"/>
<text xml:space="preserve" text-anchor="middle" x="1872.5" y="-321.45" font-family="Helvetica,sans-Serif" font-size="9.00">feat.10.weight</text>
<text xml:space="preserve" text-anchor="middle" x="1872.5" y="-310.95" font-family="Helvetica,sans-Serif" font-size="9.00"> (128, 64, 3)</text>
</g>
<!-- 2683404099248&#45;&gt;2683402921744 -->
<g id="edge44" class="edge">
<title>2683404099248&#45;&gt;2683402921744</title>
<path fill="none" stroke="#555555" d="M1909.55,-319.5C1909.55,-319.5 1992.04,-319.5 1992.04,-319.5"/>
<polygon fill="#555555" stroke="#555555" points="1992.04,-321.95 1999.04,-319.5 1992.04,-317.05 1992.04,-321.95"/>
</g>
<!-- 2683402921264 -->
<g id="node47" class="node">
<title>2683402921264</title>
<polygon fill="#f0f0f0" stroke="#333333" stroke-width="1.2" points="2085.38,-280.75 2001.12,-280.75 2001.12,-262.25 2085.38,-262.25 2085.38,-280.75"/>
<text xml:space="preserve" text-anchor="middle" x="2043.25" y="-268.2" font-family="Helvetica,sans-Serif" font-size="9.00">AccumulateGrad</text>
</g>
<!-- 2683402921264&#45;&gt;2683393177248 -->
<g id="edge45" class="edge">
<title>2683402921264&#45;&gt;2683393177248</title>
<path fill="none" stroke="#555555" d="M2085.88,-271.5C2112.5,-271.5 2141.75,-271.5 2141.75,-271.5 2141.75,-271.5 2141.75,-277.22 2141.75,-277.22"/>
<polygon fill="#555555" stroke="#555555" points="2139.3,-277.22 2141.75,-284.22 2144.2,-277.22 2139.3,-277.22"/>
</g>
<!-- 2683401524624 -->
<g id="node48" class="node">
<title>2683401524624</title>
<polygon fill="lightblue" stroke="#333333" stroke-width="1.2" points="1904.12,-276 1840.88,-276 1840.88,-247 1904.12,-247 1904.12,-276"/>
<text xml:space="preserve" text-anchor="middle" x="1872.5" y="-263.45" font-family="Helvetica,sans-Serif" font-size="9.00">feat.10.bias</text>
<text xml:space="preserve" text-anchor="middle" x="1872.5" y="-252.95" font-family="Helvetica,sans-Serif" font-size="9.00"> (128)</text>
</g>
<!-- 2683401524624&#45;&gt;2683402921264 -->
<g id="edge46" class="edge">
<title>2683401524624&#45;&gt;2683402921264</title>
<path fill="none" stroke="#555555" d="M1904.62,-269.12C1904.62,-269.12 1992.12,-269.12 1992.12,-269.12"/>
<polygon fill="#555555" stroke="#555555" points="1992.12,-271.58 1999.12,-269.13 1992.12,-266.68 1992.12,-271.58"/>
</g>
<!-- 2683393165824 -->
<g id="node49" class="node">
<title>2683393165824</title>
<polygon fill="#f0f0f0" stroke="#333333" stroke-width="1.2" points="2233.25,-227.75 2149,-227.75 2149,-209.25 2233.25,-209.25 2233.25,-227.75"/>
<text xml:space="preserve" text-anchor="middle" x="2191.12" y="-215.2" font-family="Helvetica,sans-Serif" font-size="9.00">AccumulateGrad</text>
</g>
<!-- 2683393165824&#45;&gt;2683400065888 -->
<g id="edge47" class="edge">
<title>2683393165824&#45;&gt;2683400065888</title>
<path fill="none" stroke="#555555" d="M2233.75,-215.42C2233.75,-215.42 2280.91,-215.42 2280.91,-215.42"/>
<polygon fill="#555555" stroke="#555555" points="2280.91,-217.87 2287.91,-215.42 2280.91,-212.97 2280.91,-217.87"/>
</g>
<!-- 2683404294064 -->
<g id="node50" class="node">
<title>2683404294064</title>
<polygon fill="lightblue" stroke="#333333" stroke-width="1.2" points="2079.38,-233 2007.12,-233 2007.12,-204 2079.38,-204 2079.38,-233"/>
<text xml:space="preserve" text-anchor="middle" x="2043.25" y="-220.45" font-family="Helvetica,sans-Serif" font-size="9.00">feat.11.weight</text>
<text xml:space="preserve" text-anchor="middle" x="2043.25" y="-209.95" font-family="Helvetica,sans-Serif" font-size="9.00"> (128)</text>
</g>
<!-- 2683404294064&#45;&gt;2683393165824 -->
<g id="edge48" class="edge">
<title>2683404294064&#45;&gt;2683393165824</title>
<path fill="none" stroke="#555555" d="M2079.8,-218.5C2079.8,-218.5 2139.93,-218.5 2139.93,-218.5"/>
<polygon fill="#555555" stroke="#555555" points="2139.93,-220.95 2146.93,-218.5 2139.93,-216.05 2139.93,-220.95"/>
</g>
<!-- 2682526668048 -->
<g id="node51" class="node">
<title>2682526668048</title>
<polygon fill="#f0f0f0" stroke="#333333" stroke-width="1.2" points="2233.25,-174.75 2149,-174.75 2149,-156.25 2233.25,-156.25 2233.25,-174.75"/>
<text xml:space="preserve" text-anchor="middle" x="2191.12" y="-162.2" font-family="Helvetica,sans-Serif" font-size="9.00">AccumulateGrad</text>
</g>
<!-- 2682526668048&#45;&gt;2683400065888 -->
<g id="edge49" class="edge">
<title>2682526668048&#45;&gt;2683400065888</title>
<path fill="none" stroke="#555555" d="M2233.78,-165.5C2282.85,-165.5 2356.75,-165.5 2356.75,-165.5 2356.75,-165.5 2356.75,-200.27 2356.75,-200.27"/>
<polygon fill="#555555" stroke="#555555" points="2354.3,-200.27 2356.75,-207.27 2359.2,-200.27 2354.3,-200.27"/>
</g>
<!-- 2683405229136 -->
<g id="node52" class="node">
<title>2683405229136</title>
<polygon fill="lightblue" stroke="#333333" stroke-width="1.2" points="2074.5,-175 2012,-175 2012,-146 2074.5,-146 2074.5,-175"/>
<text xml:space="preserve" text-anchor="middle" x="2043.25" y="-162.45" font-family="Helvetica,sans-Serif" font-size="9.00">feat.11.bias</text>
<text xml:space="preserve" text-anchor="middle" x="2043.25" y="-151.95" font-family="Helvetica,sans-Serif" font-size="9.00"> (128)</text>
</g>
<!-- 2683405229136&#45;&gt;2682526668048 -->
<g id="edge50" class="edge">
<title>2683405229136&#45;&gt;2682526668048</title>
<path fill="none" stroke="#555555" d="M2074.97,-165.5C2074.97,-165.5 2140,-165.5 2140,-165.5"/>
<polygon fill="#555555" stroke="#555555" points="2140,-167.95 2147,-165.5 2140,-163.05 2140,-167.95"/>
</g>
<!-- 2683391434208 -->
<g id="node53" class="node">
<title>2683391434208</title>
<polygon fill="#f0f0f0" stroke="#333333" stroke-width="1.2" points="3148.62,-177.75 3081.62,-177.75 3081.62,-159.25 3148.62,-159.25 3148.62,-177.75"/>
<text xml:space="preserve" text-anchor="middle" x="3115.12" y="-165.2" font-family="Helvetica,sans-Serif" font-size="9.00">TBackward0</text>
</g>
<!-- 2683391434208&#45;&gt;2683403576048 -->
<g id="edge51" class="edge">
<title>2683391434208&#45;&gt;2683403576048</title>
<path fill="none" stroke="#555555" d="M3114.75,-177.98C3114.75,-183.51 3114.75,-189.42 3114.75,-189.42 3114.75,-189.42 3191.41,-189.42 3191.41,-189.42"/>
<polygon fill="#555555" stroke="#555555" points="3191.41,-191.87 3198.41,-189.42 3191.41,-186.97 3191.41,-191.87"/>
</g>
<!-- 2683283505312 -->
<g id="node54" class="node">
<title>2683283505312</title>
<polygon fill="#f0f0f0" stroke="#333333" stroke-width="1.2" points="3022.88,-176.75 2938.62,-176.75 2938.62,-158.25 3022.88,-158.25 3022.88,-176.75"/>
<text xml:space="preserve" text-anchor="middle" x="2980.75" y="-164.2" font-family="Helvetica,sans-Serif" font-size="9.00">AccumulateGrad</text>
</g>
<!-- 2683283505312&#45;&gt;2683391434208 -->
<g id="edge52" class="edge">
<title>2683283505312&#45;&gt;2683391434208</title>
<path fill="none" stroke="#555555" d="M3023.27,-168C3023.27,-168 3072.88,-168 3072.88,-168"/>
<polygon fill="#555555" stroke="#555555" points="3072.88,-170.45 3079.88,-168 3072.88,-165.55 3072.88,-170.45"/>
</g>
<!-- 2683405229392 -->
<g id="node55" class="node">
<title>2683405229392</title>
<polygon fill="lightblue" stroke="#333333" stroke-width="1.2" points="2846.5,-180 2784.75,-180 2784.75,-151 2846.5,-151 2846.5,-180"/>
<text xml:space="preserve" text-anchor="middle" x="2815.62" y="-167.45" font-family="Helvetica,sans-Serif" font-size="9.00">clf.0.weight</text>
<text xml:space="preserve" text-anchor="middle" x="2815.62" y="-156.95" font-family="Helvetica,sans-Serif" font-size="9.00"> (128, 512)</text>
</g>
<!-- 2683405229392&#45;&gt;2683283505312 -->
<g id="edge53" class="edge">
<title>2683405229392&#45;&gt;2683283505312</title>
<path fill="none" stroke="#555555" d="M2847.07,-167.5C2847.07,-167.5 2929.68,-167.5 2929.68,-167.5"/>
<polygon fill="#555555" stroke="#555555" points="2929.68,-169.95 2936.68,-167.5 2929.68,-165.05 2929.68,-169.95"/>
</g>
<!-- 2683403577008 -->
<g id="node56" class="node">
<title>2683403577008</title>
<polygon fill="#f0f0f0" stroke="#333333" stroke-width="1.2" points="3289,-124.75 3204.75,-124.75 3204.75,-106.25 3289,-106.25 3289,-124.75"/>
<text xml:space="preserve" text-anchor="middle" x="3246.88" y="-112.2" font-family="Helvetica,sans-Serif" font-size="9.00">AccumulateGrad</text>
</g>
<!-- 2683403577008&#45;&gt;2683397302032 -->
<g id="edge54" class="edge">
<title>2683403577008&#45;&gt;2683397302032</title>
<path fill="none" stroke="#555555" d="M3289.31,-115.5C3317.65,-115.5 3349.75,-115.5 3349.75,-115.5 3349.75,-115.5 3349.75,-109.78 3349.75,-109.78"/>
<polygon fill="#555555" stroke="#555555" points="3352.2,-109.78 3349.75,-102.78 3347.3,-109.78 3352.2,-109.78"/>
</g>
<!-- 2683405521360 -->
<g id="node57" class="node">
<title>2683405521360</title>
<polygon fill="lightblue" stroke="#333333" stroke-width="1.2" points="3146,-130 3084.25,-130 3084.25,-101 3146,-101 3146,-130"/>
<text xml:space="preserve" text-anchor="middle" x="3115.12" y="-117.45" font-family="Helvetica,sans-Serif" font-size="9.00">clf.1.weight</text>
<text xml:space="preserve" text-anchor="middle" x="3115.12" y="-106.95" font-family="Helvetica,sans-Serif" font-size="9.00"> (128)</text>
</g>
<!-- 2683405521360&#45;&gt;2683403577008 -->
<g id="edge55" class="edge">
<title>2683405521360&#45;&gt;2683403577008</title>
<path fill="none" stroke="#555555" d="M3146.35,-115.5C3146.35,-115.5 3195.9,-115.5 3195.9,-115.5"/>
<polygon fill="#555555" stroke="#555555" points="3195.9,-117.95 3202.9,-115.5 3195.9,-113.05 3195.9,-117.95"/>
</g>
<!-- 2683403576240 -->
<g id="node58" class="node">
<title>2683403576240</title>
<polygon fill="#f0f0f0" stroke="#333333" stroke-width="1.2" points="3289,-76.75 3204.75,-76.75 3204.75,-58.25 3289,-58.25 3289,-76.75"/>
<text xml:space="preserve" text-anchor="middle" x="3246.88" y="-64.2" font-family="Helvetica,sans-Serif" font-size="9.00">AccumulateGrad</text>
</g>
<!-- 2683403576240&#45;&gt;2683397302032 -->
<g id="edge56" class="edge">
<title>2683403576240&#45;&gt;2683397302032</title>
<path fill="none" stroke="#555555" d="M3289.49,-67.5C3317.41,-67.5 3348.75,-67.5 3348.75,-67.5 3348.75,-67.5 3348.75,-73.22 3348.75,-73.22"/>
<polygon fill="#555555" stroke="#555555" points="3346.3,-73.22 3348.75,-80.22 3351.2,-73.22 3346.3,-73.22"/>
</g>
<!-- 2683405521584 -->
<g id="node59" class="node">
<title>2683405521584</title>
<polygon fill="lightblue" stroke="#333333" stroke-width="1.2" points="3142.12,-72 3088.12,-72 3088.12,-43 3142.12,-43 3142.12,-72"/>
<text xml:space="preserve" text-anchor="middle" x="3115.12" y="-59.45" font-family="Helvetica,sans-Serif" font-size="9.00">clf.1.bias</text>
<text xml:space="preserve" text-anchor="middle" x="3115.12" y="-48.95" font-family="Helvetica,sans-Serif" font-size="9.00"> (128)</text>
</g>
<!-- 2683405521584&#45;&gt;2683403576240 -->
<g id="edge57" class="edge">
<title>2683405521584&#45;&gt;2683403576240</title>
<path fill="none" stroke="#555555" d="M3142.42,-65.12C3142.42,-65.12 3195.79,-65.12 3195.79,-65.12"/>
<polygon fill="#555555" stroke="#555555" points="3195.79,-67.58 3202.79,-65.13 3195.79,-62.68 3195.79,-67.58"/>
</g>
<!-- 2683391624960 -->
<g id="node60" class="node">
<title>2683391624960</title>
<polygon fill="#f0f0f0" stroke="#333333" stroke-width="1.2" points="3588.88,-51.75 3521.88,-51.75 3521.88,-33.25 3588.88,-33.25 3588.88,-51.75"/>
<text xml:space="preserve" text-anchor="middle" x="3555.38" y="-39.2" font-family="Helvetica,sans-Serif" font-size="9.00">TBackward0</text>
</g>
<!-- 2683391624960&#45;&gt;2682523482720 -->
<g id="edge58" class="edge">
<title>2683391624960&#45;&gt;2682523482720</title>
<path fill="none" stroke="#555555" d="M3589.21,-42.5C3628.13,-42.5 3686.75,-42.5 3686.75,-42.5 3686.75,-42.5 3686.75,-73.54 3686.75,-73.54"/>
<polygon fill="#555555" stroke="#555555" points="3684.3,-73.54 3686.75,-80.54 3689.2,-73.54 3684.3,-73.54"/>
</g>
<!-- 2682520984144 -->
<g id="node61" class="node">
<title>2682520984144</title>
<polygon fill="#f0f0f0" stroke="#333333" stroke-width="1.2" points="3445.5,-49.75 3361.25,-49.75 3361.25,-31.25 3445.5,-31.25 3445.5,-49.75"/>
<text xml:space="preserve" text-anchor="middle" x="3403.38" y="-37.2" font-family="Helvetica,sans-Serif" font-size="9.00">AccumulateGrad</text>
</g>
<!-- 2682520984144&#45;&gt;2683391624960 -->
<g id="edge59" class="edge">
<title>2682520984144&#45;&gt;2683391624960</title>
<path fill="none" stroke="#555555" d="M3445.72,-41.5C3445.72,-41.5 3512.92,-41.5 3512.92,-41.5"/>
<polygon fill="#555555" stroke="#555555" points="3512.92,-43.95 3519.92,-41.5 3512.92,-39.05 3512.92,-43.95"/>
</g>
<!-- 2682522471968 -->
<g id="node62" class="node">
<title>2682522471968</title>
<polygon fill="lightblue" stroke="#333333" stroke-width="1.2" points="3277.75,-29 3216,-29 3216,0 3277.75,0 3277.75,-29"/>
<text xml:space="preserve" text-anchor="middle" x="3246.88" y="-16.45" font-family="Helvetica,sans-Serif" font-size="9.00">clf.4.weight</text>
<text xml:space="preserve" text-anchor="middle" x="3246.88" y="-5.95" font-family="Helvetica,sans-Serif" font-size="9.00"> (6, 128)</text>
</g>
<!-- 2682522471968&#45;&gt;2682520984144 -->
<g id="edge60" class="edge">
<title>2682522471968&#45;&gt;2682520984144</title>
<path fill="none" stroke="#555555" d="M3246.75,-29.47C3246.75,-33.67 3246.75,-37.12 3246.75,-37.12 3246.75,-37.12 3352.48,-37.12 3352.48,-37.12"/>
<polygon fill="#555555" stroke="#555555" points="3352.48,-39.58 3359.48,-37.13 3352.48,-34.68 3352.48,-39.58"/>
</g>
</g>
</svg>
